<?xml version="1.0" encoding="UTF-8" standalone="no"?>
<!-- Created with Inkscape (http://www.inkscape.org/) -->

<svg
   xmlns:dc="http://purl.org/dc/elements/1.1/"
   xmlns:cc="http://creativecommons.org/ns#"
   xmlns:rdf="http://www.w3.org/1999/02/22-rdf-syntax-ns#"
   xmlns:svg="http://www.w3.org/2000/svg"
   xmlns="http://www.w3.org/2000/svg"
   version="1.0"
   width="35mm"
   height="35mm"
   viewBox="0 0 3500 3500"
   id="svg4136"
   xml:space="preserve"
   style="fill-rule:evenodd"><metadata
     id="metadata4164"><rdf:RDF><cc:Work
         rdf:about=""><dc:format>image/svg+xml</dc:format><dc:type
           rdf:resource="http://purl.org/dc/dcmitype/StillImage" /><dc:title></dc:title></cc:Work></rdf:RDF></metadata><defs
     id="defs4138"><style
       type="text/css"
       id="style4140" /></defs><g
     transform="matrix(1.4559598,0,0,1.4559598,-898.38823,-611.88525)"
     id="text4500"
     style="font-size:930.07214355px;font-weight:300;line-height:125%;fill:#2e2e2e;fill-opacity:1;fill-rule:evenodd;font-family:Roboto Light" /><g
     transform="matrix(1.1059528,0,0,1.1059528,-179.21564,-202.30417)"
     id="g2995"><circle
       cx="1727.1096"
       cy="1746.9037"
       r="1432.1221"
       id="path4972"
       style="fill:#ffffff;fill-opacity:1;stroke:#ffffff;stroke-width:76.37983704;stroke-miterlimit:4;stroke-opacity:1;stroke-dasharray:none" /><path
       d="m 1747.7495,293.16973 c 406.8853,0 775.3853,166.33677 1042.8037,432.47561 266.1389,267.4183 432.4756,635.91826 432.4756,1042.80356 0,408.1648 -165.0572,776.6647 -432.4756,1044.0832 -266.1388,266.1388 -635.9184,431.196 -1042.8037,431.196 -408.1647,0 -776.66467,-165.0572 -1044.08314,-431.196 -266.13879,-267.4185 -431.19605,-635.9184 -431.19605,-1044.0832 0,-406.8853 165.05726,-776.66475 431.19605,-1042.80356 C 971.08483,458.22699 1340.8643,293.16973 1747.7495,293.16973 z"
       id="path4498"
       style="fill:none;stroke:#009846;stroke-width:216.6643219;stroke-miterlimit:4;stroke-dasharray:none" /><path
       d="m 1423.2225,2394.4399 -259.1932,0 0,-1283.6235 259.1932,0 0,1283.6235 z"
       id="path4975"
       style="font-size:1240.10021973px;font-style:normal;font-variant:normal;font-weight:bold;font-stretch:normal;text-align:start;line-height:125%;writing-mode:lr-tb;text-anchor:start;fill:#2e2e2e;fill-opacity:1;fill-rule:evenodd;font-family:Roboto Condensed;-inkscape-font-specification:'Roboto Condensed, Bold'" /><path
       d="m 2449.416,1326.8108 -317.3795,0 0,1067.6291 -260.0748,0 0,-1067.6291 -312.0898,0 0,-215.9944 889.5441,0 0,215.9944 z"
       id="path4977"
       style="font-size:1240.10021973px;font-style:normal;font-variant:normal;font-weight:bold;font-stretch:normal;text-align:start;line-height:125%;writing-mode:lr-tb;text-anchor:start;fill:#2e2e2e;fill-opacity:1;fill-rule:evenodd;font-family:Roboto Condensed;-inkscape-font-specification:'Roboto Condensed, Bold'" /><path
       d="m 1214.8096,2665.9619 q 18.6191,0 28.5706,-10.4331 9.9516,-10.4331 10.7541,-30.0154 l 17.1745,0 q -1.284,26.6447 -17.0139,41.8931 -15.73,15.0878 -39.4853,15.0878 -30.9783,0 -46.8688,-19.7427 -15.7299,-19.9031 -16.051,-58.9069 l 0,-21.1873 q 0,-39.8062 15.7299,-60.0305 15.8905,-20.2242 47.0293,-20.2242 25.8421,0 40.7695,16.372 14.9274,16.2114 15.8903,45.4242 l -17.1745,0 q -0.8025,-21.5083 -10.9146,-33.2254 -10.112,-11.8778 -28.5707,-11.8778 -23.1134,0 -34.028,15.5695 -10.7541,15.5693 -10.7541,47.8318 l 0,19.7426 q 0,33.3859 10.9146,48.6343 10.9147,15.088 34.0281,15.088 z"
       id="path4980"
       style="font-size:225.77778625px;font-style:normal;font-variant:normal;font-weight:300;font-stretch:normal;text-align:start;line-height:125%;writing-mode:lr-tb;text-anchor:start;fill:#2e2e2e;fill-opacity:1;fill-rule:evenodd;font-family:Roboto Condensed;-inkscape-font-specification:'Roboto Condensed, Semi-Light'" /><path
       d="m 1302.9292,2594.0536 q 0,-42.535 13.9643,-67.0929 14.1248,-24.558 38.6828,-24.558 13.8038,0 23.2739,6.581 l 0,-76.2421 17.8166,0 0,76.884 q 9.9515,-7.2229 24.237,-7.2229 24.7184,0 38.6826,24.558 14.1249,24.3974 14.1249,70.4636 0,39.6458 -14.1249,62.4381 -13.9642,22.7925 -38.3618,22.7925 -14.7667,0 -24.5578,-6.7414 l 0,70.1426 -17.8166,0 0,-69.8217 q -10.2726,6.4205 -23.4344,6.4205 -24.0764,0 -38.3617,-22.4714 -14.1249,-22.6318 -14.1249,-66.1299 z m 153.1261,0 q 0,-34.5096 -10.4331,-54.7337 -10.2727,-20.2242 -28.8918,-20.2242 -12.6803,0 -20.0636,6.2599 l 0,135.1489 q 8.3465,5.6178 20.3846,5.6178 18.6191,0 28.7312,-17.977 10.2727,-18.1376 10.2727,-54.0917 z m -135.149,3.3707 q 0,33.065 9.7911,50.8815 9.9515,17.8165 28.4102,17.8165 11.7171,0 19.7426,-5.7782 l 0,-135.4701 q -7.7045,-5.7783 -19.4216,-5.7783 -18.4586,0 -28.5707,19.7427 -9.9516,19.5821 -9.9516,58.5859 z"
       id="path4982"
       style="font-size:225.77778625px;font-style:normal;font-variant:normal;font-weight:300;font-stretch:normal;text-align:start;line-height:125%;writing-mode:lr-tb;text-anchor:start;fill:#2e2e2e;fill-opacity:1;fill-rule:evenodd;font-family:Roboto Condensed;-inkscape-font-specification:'Roboto Condensed, Semi-Light'" /><path
       d="m 1572.9061,2682.4943 q -30.6573,0 -47.9922,-20.0637 -17.3351,-20.0636 -17.6562,-57.1413 l 0,-21.1873 q 0,-38.2012 16.6931,-59.8699 16.693,-21.8294 45.9056,-21.8294 28.2497,0 43.0165,18.4587 14.9275,18.4585 15.2484,56.4992 l 0,16.693 -103.2074,0 0,9.7911 q 0,29.8547 12.6802,46.0663 12.8407,16.2113 36.1145,16.2113 25.6816,0 41.572,-18.7795 l 9.3096,11.8777 q -17.0141,23.2738 -51.6841,23.2738 z m -3.0497,-163.3986 q -21.0266,0 -32.4229,14.9274 -11.2356,14.7668 -12.3592,43.3375 l 85.2306,0 0,-4.6547 q -1.2842,-53.6102 -40.4485,-53.6102 z"
       id="path4984"
       style="font-size:225.77778625px;font-style:normal;font-variant:normal;font-weight:300;font-stretch:normal;text-align:start;line-height:125%;writing-mode:lr-tb;text-anchor:start;fill:#2e2e2e;fill-opacity:1;fill-rule:evenodd;font-family:Roboto Condensed;-inkscape-font-specification:'Roboto Condensed, Semi-Light'" /><path
       d="m 1784.2971,2600.6346 q 0,40.1272 -13.9643,60.9935 -13.9644,20.8662 -41.7325,20.8662 -30.1758,0 -45.1031,-24.0763 l 0,87.6381 -17.656,0 0,-240.4431 16.3718,0 0.8027,23.7553 q 15.4088,-26.9656 45.1031,-26.9656 28.0891,0 42.0534,19.9031 13.9644,19.9033 14.1249,60.8332 l 0,17.4956 z m -17.8165,-16.2116 q 0,-33.3858 -10.4331,-49.1159 -10.2727,-15.7299 -32.2625,-15.7299 -28.2497,0 -40.2878,28.7312 l 0,91.4905 q 12.0381,26.163 40.6089,26.163 21.5083,0 31.7808,-15.7299 10.4331,-15.7301 10.5937,-48.4739 l 0,-17.3351 z"
       id="path4986"
       style="font-size:225.77778625px;font-style:normal;font-variant:normal;font-weight:300;font-stretch:normal;text-align:start;line-height:125%;writing-mode:lr-tb;text-anchor:start;fill:#2e2e2e;fill-opacity:1;fill-rule:evenodd;font-family:Roboto Condensed;-inkscape-font-specification:'Roboto Condensed, Semi-Light'" /><path
       d="m 1917.52,2679.2842 q -2.4077,-8.3466 -3.2103,-24.0765 -8.0253,13.0013 -20.7056,20.2242 -12.5198,7.0624 -27.2867,7.0624 -22.4713,0 -34.991,-12.6802 -12.5198,-12.6803 -12.5198,-36.1147 0,-25.5209 17.335,-40.4483 17.4955,-14.9274 48.153,-15.088 l 29.8547,0 0,-24.2369 q 0,-18.6191 -9.3096,-26.6445 -9.1491,-8.186 -26.9656,-8.186 -16.5325,0 -27.126,9.6306 -10.5937,9.6306 -10.5937,24.8789 l -17.8166,-0.1605 q 0,-21.3477 16.0509,-36.1146 16.0511,-14.9274 40.288,-14.9274 26.163,0 39.6458,13.1617 13.4828,13.1619 13.4828,38.3618 l 0,85.2306 q 0,25.5209 4.6548,38.2012 l 0,1.9262 -18.9401,0 z m -48.9555,-13.9644 q 15.7301,0 27.7682,-8.186 12.1988,-8.186 17.8166,-21.8292 l 0,-42.2141 -28.2497,0 q -24.3975,0.3211 -36.7567,10.9148 -12.3592,10.4331 -12.3592,28.2495 0,33.065 31.7808,33.065 z"
       id="path4988"
       style="font-size:225.77778625px;font-style:normal;font-variant:normal;font-weight:300;font-stretch:normal;text-align:start;line-height:125%;writing-mode:lr-tb;text-anchor:start;fill:#2e2e2e;fill-opacity:1;fill-rule:evenodd;font-family:Roboto Condensed;-inkscape-font-specification:'Roboto Condensed, Semi-Light'" /><path
       d="m 1573.7507,2197.8276 145.8252,0 0,136.1037 -145.8252,0 z"
       id="rect4018"
       style="fill:#2e2e2e;fill-opacity:1;fill-rule:evenodd;stroke:#2e2e2e;stroke-width:116.1887207;stroke-miterlimit:4;stroke-opacity:1;stroke-dasharray:none" /><path
       d="m 2272.5436,2200.1099 145.8253,0 0,136.1036 -145.8253,0 z"
       id="rect4018-6"
       style="fill:#2e2e2e;fill-opacity:1;fill-rule:evenodd;stroke:#2e2e2e;stroke-width:116.1887207;stroke-miterlimit:4;stroke-opacity:1;stroke-dasharray:none" /></g></svg>