<?xml version="1.0" encoding="UTF-8" standalone="no"?>
<svg
   xmlns:dc="http://purl.org/dc/elements/1.1/"
   xmlns:cc="http://creativecommons.org/ns#"
   xmlns:rdf="http://www.w3.org/1999/02/22-rdf-syntax-ns#"
   xmlns:svg="http://www.w3.org/2000/svg"
   xmlns="http://www.w3.org/2000/svg"
   version="1.1"
   id="svg8162"
   viewBox="0 0 260 260"
   height="260"
   width="260">
  <defs
     id="defs8164" />
  <metadata
     id="metadata8167">
    <rdf:RDF>
      <cc:Work
         rdf:about="">
        <dc:format>image/svg+xml</dc:format>
        <dc:type
           rdf:resource="http://purl.org/dc/dcmitype/StillImage" />
        <dc:title></dc:title>
      </cc:Work>
    </rdf:RDF>
  </metadata>
  <g
     transform="translate(0,-792.36216)"
     id="layer1">
    <g
       transform="matrix(0.94103638,0,0,0.94103638,-243.31451,650.28454)"
       id="g8757">
      <path
         id="circle4187-3"
         d="M 524.33994,289.50506 A 127.19708,127.19708 0 0 1 397.14286,416.70214 127.19708,127.19708 0 0 1 269.94578,289.50506 127.19708,127.19708 0 0 1 397.14286,162.30798 127.19708,127.19708 0 0 1 524.33994,289.50506 Z"
         style="fill:#ffffff;stroke:#009846;stroke-width:19.35607719" />
      <g
         id="text4189-7"
         style="font-weight:bold;font-size:1978px;font-family:'Roboto Condensed';fill:#2e2e2e"
         transform="matrix(0.0790044,0,0,0.0790044,258.88516,151.24736)">
        <path
           id="path8728"
           style="font-weight:bold;font-size:1978px;font-family:'Roboto Condensed';fill:#2e2e2e"
           d="m 1394.5078,2400 -283.9512,0 0,-1406.23438 283.9512,0 0,1406.23438 z" />
        <path
           id="path8730"
           style="font-weight:bold;font-size:1978px;font-family:'Roboto Condensed';fill:#2e2e2e"
           d="m 2518.7227,1230.3916 -347.6954,0 0,1169.6084 -284.9169,0 0,-1169.6084 -341.9004,0 0,-236.62598 974.5127,0 0,236.62598 z" />
      </g>
      <g
         id="text4191-1"
         style="font-weight:300;font-size:360px;font-family:'Roboto Condensed';fill:#2e2e2e"
         transform="matrix(0.0790044,0,0,0.0790044,258.88516,151.24736)">
        <path
           id="path8733"
           style="font-weight:300;font-size:360px;font-family:'Roboto Condensed';fill:#2e2e2e"
           d="m 1166.1328,2685.4102 q 20.3906,0 31.2891,-11.4258 10.8984,-11.4258 11.7773,-32.8711 l 18.8086,0 q -1.4062,29.1797 -18.6328,45.8789 -17.2266,16.5234 -43.2422,16.5234 -33.9258,0 -51.3281,-21.6211 -17.2266,-21.7968 -17.5781,-64.5117 l 0,-23.2031 q 0,-43.5938 17.2265,-65.7422 17.4024,-22.1484 51.5039,-22.1484 28.3008,0 44.6485,17.9297 16.3476,17.7539 17.4023,49.746 l -18.8086,0 q -0.8789,-23.5546 -11.9531,-36.3867 -11.0742,-13.0078 -31.2891,-13.0078 -25.3125,0 -37.2656,17.0508 -11.7773,17.0508 -11.7773,52.3828 l 0,21.6211 q 0,36.5625 11.9531,53.2617 11.9531,16.5235 37.2656,16.5235 z" />
        <path
           id="path8735"
           style="font-weight:300;font-size:360px;font-family:'Roboto Condensed';fill:#2e2e2e"
           d="m 1262.6367,2606.6602 q 0,-46.5821 15.293,-73.4766 15.4687,-26.8945 42.3633,-26.8945 15.1172,0 25.4883,7.207 l 0,-83.4961 19.5117,0 0,84.1992 q 10.8984,-7.9101 26.5429,-7.9101 27.0704,0 42.3633,26.8945 15.4688,26.7187 15.4688,77.168 0,43.4179 -15.4688,68.3789 -15.2929,24.9609 -42.0117,24.9609 -16.1719,0 -26.8945,-7.3828 l 0,76.8164 -19.5117,0 0,-76.4648 q -11.25,7.0312 -25.6641,7.0312 -26.3672,0 -42.0117,-24.6094 -15.4688,-24.7851 -15.4688,-72.4218 z m 167.6953,0 q 0,-37.793 -11.4257,-59.9414 -11.25,-22.1485 -31.6407,-22.1485 -13.8867,0 -21.9726,6.8555 l 0,148.0078 q 9.1406,6.1523 22.3242,6.1523 20.3906,0 31.4648,-19.6875 11.25,-19.8632 11.25,-59.2382 z m -148.0078,3.6914 q 0,36.2109 10.7227,55.7226 10.8984,19.5117 31.1133,19.5117 12.832,0 21.6211,-6.3281 l 0,-148.3594 q -8.4375,-6.3281 -21.2696,-6.3281 -20.2148,0 -31.289,21.6211 -10.8985,21.4453 -10.8985,64.1602 z" />
        <path
           id="path8737"
           style="font-weight:300;font-size:360px;font-family:'Roboto Condensed';fill:#2e2e2e"
           d="m 1558.3008,2703.5156 q -33.5742,0 -52.5586,-21.9726 -18.9844,-21.9727 -19.3359,-62.5782 l 0,-23.2031 q 0,-41.8359 18.2812,-65.5664 18.2813,-23.9062 50.2734,-23.9062 30.9375,0 47.1094,20.2148 16.3477,20.2149 16.6992,61.875 l 0,18.2813 -113.0273,0 0,10.7226 q 0,32.6953 13.8867,50.4492 14.0625,17.7539 39.5508,17.7539 28.125,0 45.5273,-20.5664 l 10.1953,13.0078 q -18.6328,25.4883 -56.6015,25.4883 z m -3.3399,-178.9453 q -23.0273,0 -35.5078,16.3477 -12.3047,16.1718 -13.5351,47.4609 l 93.3398,0 0,-5.0976 q -1.4062,-58.711 -44.2969,-58.711 z" />
        <path
           id="path8739"
           style="font-weight:300;font-size:360px;font-family:'Roboto Condensed';fill:#2e2e2e"
           d="m 1789.8047,2613.8672 q 0,43.9453 -15.293,66.7969 -15.2929,22.8515 -45.7031,22.8515 -33.0469,0 -49.3945,-26.3672 l 0,95.9766 -19.336,0 0,-263.3203 17.9297,0 0.8789,26.0156 q 16.875,-29.5312 49.3946,-29.5312 30.7617,0 46.0546,21.7968 15.293,21.7969 15.4688,66.6211 l 0,19.1602 z m -19.5117,-17.7539 q 0,-36.5625 -11.4258,-53.7891 -11.25,-17.2265 -35.332,-17.2265 -30.9375,0 -44.1211,31.4648 l 0,100.1953 q 13.1836,28.6524 44.4726,28.6524 23.5547,0 34.8047,-17.2266 11.4258,-17.2266 11.6016,-53.0859 l 0,-18.9844 z" />
        <path
           id="path8741"
           style="font-weight:300;font-size:360px;font-family:'Roboto Condensed';fill:#2e2e2e"
           d="m 1935.7031,2700 q -2.6367,-9.1406 -3.5156,-26.3672 -8.7891,14.2383 -22.6758,22.1485 -13.7109,7.7343 -29.8828,7.7343 -24.6094,0 -38.3203,-13.8867 -13.7109,-13.8867 -13.7109,-39.5508 0,-27.9492 18.9843,-44.2968 19.1602,-16.3477 52.7344,-16.5235 l 32.6953,0 0,-26.543 q 0,-20.3906 -10.1953,-29.1796 -10.0195,-8.9649 -29.5312,-8.9649 -18.1055,0 -29.7071,10.5469 -11.6015,10.5469 -11.6015,27.2461 l -19.5118,-0.1758 q 0,-23.3789 17.5782,-39.5508 17.5781,-16.3476 44.1211,-16.3476 28.6523,0 43.4179,14.414 14.7657,14.4141 14.7657,42.0117 l 0,93.3399 q 0,27.9492 5.0976,41.8359 l 0,2.1094 -20.7422,0 z m -53.6133,-15.293 q 17.2266,0 30.4102,-8.9648 13.3594,-8.9649 19.5117,-23.9063 l 0,-46.2304 -30.9375,0 q -26.7187,0.3515 -40.2539,11.9531 -13.5351,11.4258 -13.5351,30.9375 0,36.2109 34.8046,36.2109 z" />
      </g>
      <path
         id="rect4193-0"
         d="m 382.05302,323.87197 12.6407,0 0,11.77166 -12.6407,0 z"
         style="fill:#2e2e2e;stroke:#2e2e2e;stroke-width:10.05503368;stroke-miterlimit:4" />
      <path
         id="rect4195-4"
         d="m 442.57039,323.87197 12.6407,0 0,11.77166 -12.6407,0 z"
         style="fill:#2e2e2e;stroke:#2e2e2e;stroke-width:10.05503368;stroke-miterlimit:4" />
    </g>
  </g>
</svg>
