<?xml version="1.0" encoding="UTF-8" standalone="no"?>
<svg
   xmlns:dc="http://purl.org/dc/elements/1.1/"
   xmlns:cc="http://creativecommons.org/ns#"
   xmlns:rdf="http://www.w3.org/1999/02/22-rdf-syntax-ns#"
   xmlns:svg="http://www.w3.org/2000/svg"
   xmlns="http://www.w3.org/2000/svg"
   xmlns:sodipodi="http://sodipodi.sourceforge.net/DTD/sodipodi-0.dtd"
   xmlns:inkscape="http://www.inkscape.org/namespaces/inkscape"
   width="920"
   height="300"
   viewBox="0 0 919.99999 300.00001"
   id="svg16500"
   version="1.1"
   inkscape:version="0.91 r13725"
   sodipodi:docname="map.svg">
  <sodipodi:namedview
     pagecolor="#ffffff"
     bordercolor="#666666"
     borderopacity="1"
     objecttolerance="10"
     gridtolerance="10"
     guidetolerance="10"
     inkscape:pageopacity="0"
     inkscape:pageshadow="2"
     inkscape:window-width="1280"
     inkscape:window-height="776"
     id="namedview112"
     showgrid="false"
     inkscape:zoom="0.50880944"
     inkscape:cx="350.83165"
     inkscape:cy="195.01393"
     inkscape:window-x="0"
     inkscape:window-y="24"
     inkscape:window-maximized="1"
     inkscape:current-layer="svg16500" />
  <defs
     id="defs16502">
    <clipPath
       id="clipPath4541"
       clipPathUnits="userSpaceOnUse">
      <rect
         y="0"
         x="0"
         height="300"
         width="920"
         id="rect4543"
         style="opacity:1;fill:#000000;fill-opacity:1;fill-rule:evenodd;stroke:none;stroke-width:17.64599991;stroke-linecap:round;stroke-linejoin:bevel;stroke-miterlimit:4;stroke-dasharray:none;stroke-opacity:1" />
    </clipPath>
  </defs>
  <metadata
     id="metadata16505">
    <rdf:RDF>
      <cc:Work
         rdf:about="">
        <dc:format>image/svg+xml</dc:format>
        <dc:type
           rdf:resource="http://purl.org/dc/dcmitype/StillImage" />
        <dc:title></dc:title>
      </cc:Work>
    </rdf:RDF>
  </metadata>
  <g
     clip-path="url(#clipPath4541)"
     id="g4435">
    <path
       style="display:inline;fill:none;stroke:#b8b8b8;stroke-width:0.81164378;stroke-linecap:butt;stroke-linejoin:miter;stroke-miterlimit:4;stroke-opacity:1"
       id="path26946"
       d="m 648.45292,185.82025 65.86996,-38.3502 15.57341,24.1337 -41.97086,24.14019 26.84764,48.50207 -26.84764,14.66654 -39.47251,-73.0923" />
    <path
       style="display:inline;fill:none;stroke:#b8b8b8;stroke-width:0.81164378;stroke-linecap:butt;stroke-linejoin:miter;stroke-miterlimit:4;stroke-opacity:1"
       id="path26954"
       d="m 768.43036,160.05684 31.2229,-16.42313 52.88369,96.02139 -25.62385,13.70904 -58.48274,-93.3073" />
    <path
       style="display:inline;fill:#f0f0d7;fill-opacity:1;fill-rule:nonzero;stroke:none"
       id="path26968"
       d="m 609.25942,58.75994 21.2866,-12.14927 6.5375,11.45176 12.5615,-7.16523 -1.8135,-3.18322 48.86347,-27.86848 7.197,12.63103 -38.69257,22.06672 15.04709,26.36563 22.55483,-12.86571 -10.33578,-18.10977 7.2414,-4.13445 14.84419,26.0234 -39.30765,22.42161 -4.43868,-7.78665 -3.7792,2.15587 -16.7402,-29.33324 -8.5983,4.90156 2.5744,4.50202 -22.1363,12.6249 z m 0,0" />
    <path
       style="display:inline;fill:none;stroke:#a32828;stroke-width:0.48698631;stroke-linecap:butt;stroke-linejoin:miter;stroke-miterlimit:4;stroke-opacity:1"
       id="path26970"
       d="m 609.25942,58.75994 21.2866,-12.14927 6.5375,11.45176 12.5615,-7.16523 -1.8135,-3.18322 48.86347,-27.86848 7.197,12.63103 -38.69257,22.06672 15.04709,26.36563 22.55483,-12.86571 -10.33578,-18.10977 7.2414,-4.13445 14.84419,26.0234 -39.30765,22.42161 -4.43868,-7.78665 -3.7792,2.15587 -16.7402,-29.33324 -8.5983,4.90156 2.5744,4.50202 -22.1363,12.6249 -12.8658,-22.54848" />
    <path
       style="display:inline;fill:none;stroke:#b8b8b8;stroke-width:0.81164378;stroke-linecap:butt;stroke-linejoin:miter;stroke-miterlimit:4;stroke-opacity:1"
       id="path26978"
       d="m 605.59432,272.75482 34.2158,-21.37543 15.4467,26.85408 -32.4785,20.06917 -17.184,-25.54782" />
    <path
       style="display:inline;fill:#f0f0d7;fill-opacity:1;fill-rule:nonzero;stroke:none"
       id="path26980"
       d="m 315.9896,335.78414 9.5685,-5.54214 12.0986,20.8872 39.295,-22.76397 -3.5827,-6.17607 8.256,-4.78757 9.5114,16.41679 -57.1131,33.08722 z m 0,0" />
    <path
       style="display:inline;fill:#dedede;fill-opacity:1;fill-rule:nonzero;stroke:none"
       id="path26984"
       d="m 739.1985,268.70932 42.9537,-24.36202 14.07695,25.62386 -17.00013,9.66379 -8.66178,-10.97629 -23.03671,14.20373 z m 0,0" />
    <path
       style="display:inline;fill:none;stroke:#b8b8b8;stroke-width:0.81164378;stroke-linecap:butt;stroke-linejoin:miter;stroke-miterlimit:4;stroke-opacity:1"
       id="path26986"
       d="m 739.1985,268.70932 42.9537,-24.36202 14.07695,25.62386 -17.00013,9.66379 -8.66178,-10.97629 -23.03671,14.20373 -8.33203,-14.15307" />
    <path
       style="display:inline;fill:#f0f0d7;fill-opacity:1;fill-rule:nonzero;stroke:none"
       id="path26988"
       d="M 49.4027,74.78981 83.6375,55.18998 95.4698,75.85526 61.2286,95.44882 Z m 0,0" />
    <path
       style="display:inline;fill:none;stroke:#a32828;stroke-width:0.48698631;stroke-linecap:butt;stroke-linejoin:miter;stroke-miterlimit:4;stroke-opacity:1"
       id="path26990"
       d="M 49.4027,74.78981 83.6375,55.18998 95.4698,75.85526 61.2286,95.44882 49.4027,74.78981" />
    <path
       style="display:inline;fill:#f0f0d7;fill-opacity:1;fill-rule:nonzero;stroke:none"
       id="path27002"
       d="m 530.26992,276.02041 29.8787,-16.42299 8.8963,16.21385 -9.7841,5.37066 -4.7557,-8.64892 -10.5957,5.82094 5.1298,9.334 -9.4988,5.20586 z m 0,0" />
    <path
       style="display:inline;fill:none;stroke:#a32828;stroke-width:0.48698631;stroke-linecap:butt;stroke-linejoin:miter;stroke-miterlimit:4;stroke-opacity:1"
       id="path27004"
       d="m 530.26992,276.02041 29.8787,-16.42299 8.8963,16.21385 -9.7841,5.37066 -4.7557,-8.64892 -10.5957,5.82094 5.1298,9.334 -9.4988,5.20586 -9.2705,-16.8734" />
    <path
       style="display:inline;fill:#d9cfc7;fill-opacity:1;fill-rule:nonzero;stroke:#b8a89c;stroke-width:1.21746564;stroke-linecap:butt;stroke-linejoin:miter;stroke-miterlimit:4;stroke-opacity:1"
       id="path27076"
       d="m 609.25942,58.75994 21.2866,-12.14927 6.5375,11.45176 12.5615,-7.16523 -1.8135,-3.18322 48.86347,-27.86848 7.197,12.63103 -38.69257,22.06672 15.04709,26.36563 22.55483,-12.86571 -10.33578,-18.10977 7.2414,-4.13445 14.84419,26.0234 -39.30765,22.42161 -4.43868,-7.78665 -3.7792,2.15587 -16.7402,-29.33324 -8.5983,4.90156 2.5744,4.50202 -22.1363,12.6249 z m 0,0" />
    <path
       style="display:inline;fill:#d9cfc7;fill-opacity:1;fill-rule:nonzero;stroke:#b8a89c;stroke-width:1.21746564;stroke-linecap:butt;stroke-linejoin:miter;stroke-miterlimit:4;stroke-opacity:1"
       id="path27078"
       d="m 534.74672,34.61359 44.0316,-25.85855 6.4044,10.91281 -11.9274,7.0005 23.2841,39.65008 -32.1107,18.85154 z m 0,0" />
    <path
       style="display:inline;fill:#d9cfc7;fill-opacity:1;fill-rule:nonzero;stroke:#b8a89c;stroke-width:1.21746564;stroke-linecap:butt;stroke-linejoin:miter;stroke-miterlimit:4;stroke-opacity:1"
       id="path27086"
       d="m 123.7949,276.40102 41.1782,-24.64743 6.2142,10.29141 -30.405,18.10973 23.1129,38.97165 14.1847,23.90532 26.0931,15.2881 -5.5674,10.7037 -31.2546,-18.6868 -14.5272,-24.6538 z m 0,0" />
    <path
       style="display:inline;fill:#d9cfc7;fill-opacity:1;fill-rule:nonzero;stroke:#b8a89c;stroke-width:1.21746564;stroke-linecap:butt;stroke-linejoin:miter;stroke-miterlimit:4;stroke-opacity:1"
       id="path27088"
       d="m 46.6697,142.54956 6.398,-10.36121 10.9826,7.35552 11.1411,-8.35743 5.1679,9.55578 -7.9516,3.97587 -0.7926,13.51899 11.4961,20.06279 7.197,12.56147 23.468,-13.11947 5.9605,-17.11426 11.5405,1.19209 -8.7505,25.85842 -38.1853,21.48327 -14.394,-22.93534 -11.065,-17.63415 0.7926,-17.11438 z m 0,0" />
    <path
       style="display:inline;fill:#d9cfc7;fill-opacity:1;fill-rule:nonzero;stroke:#b8a89c;stroke-width:1.21746564;stroke-linecap:butt;stroke-linejoin:miter;stroke-miterlimit:4;stroke-opacity:1"
       id="path27090"
       d="m 127.9546,94.4152 6.398,-10.36121 10.9889,7.35552 11.1411,-8.35091 5.1679,9.54951 -7.958,3.97562 -0.7926,13.53164 18.6932,32.61159 23.4679,-13.12572 5.9732,-17.10799 11.5342,1.19847 -8.7442,25.85215 -38.198,21.48316 -25.4526,-40.57575 0.7926,-17.108 z m 0,0" />
    <path
       style="display:inline;fill:#d9cfc7;fill-opacity:1;fill-rule:nonzero;stroke:#b8a89c;stroke-width:1.21746564;stroke-linecap:butt;stroke-linejoin:miter;stroke-miterlimit:4;stroke-opacity:1"
       id="path27092"
       d="m 207.5718,44.76533 6.3916,-10.36109 10.9889,7.35565 11.1411,-8.35116 5.1679,9.54949 -7.9579,3.96949 -0.7926,13.53803 18.6932,32.61148 23.4742,-13.12585 5.9605,-17.10787 11.5406,1.19846 -8.7569,25.85217 -38.1789,21.48315 -25.4654,-40.57589 0.7926,-17.10786 z m 0,0" />
    <path
       style="display:inline;fill:#d9cfc7;fill-opacity:1;fill-rule:nonzero;stroke:#b8a89c;stroke-width:1.21746564;stroke-linecap:butt;stroke-linejoin:miter;stroke-miterlimit:4;stroke-opacity:1"
       id="path27098"
       d="m 394.7571,108.18767 12.1557,-6.84806 40.01152,71.13917 -12.162,6.84204 z m 0,0" />
    <path
       style="display:inline;fill:#d9cfc7;fill-opacity:1;fill-rule:nonzero;stroke:#b8a89c;stroke-width:1.21746564;stroke-linecap:butt;stroke-linejoin:miter;stroke-miterlimit:4;stroke-opacity:1"
       id="path27102"
       d="m 748.50702,50.70689 71.07593,-40.30322 6.2268,10.96999 -71.08222,40.30948 z m 0,0" />
    <path
       style="display:inline;fill:#d9cfc7;fill-opacity:1;fill-rule:nonzero;stroke:#b8a89c;stroke-width:1.21746564;stroke-linecap:butt;stroke-linejoin:miter;stroke-miterlimit:4;stroke-opacity:1"
       id="path27104"
       d="m 358.2141,127.5404 10.2217,-6.01114 42.40202,72.14746 -10.21532,6.00487 z m 0,0" />
    <path
       style="display:inline;fill:#d9cfc7;fill-opacity:1;fill-rule:nonzero;stroke:#b8a89c;stroke-width:1.21746564;stroke-linecap:butt;stroke-linejoin:miter;stroke-miterlimit:4;stroke-opacity:1"
       id="path27106"
       d="m 307.3532,224.34795 20.7667,-77.99388 11.8703,3.16416 -20.7604,77.98748 z m 0,0" />
    <path
       style="display:inline;fill:#d9cfc7;fill-opacity:1;fill-rule:nonzero;stroke:#b8a89c;stroke-width:1.21746564;stroke-linecap:butt;stroke-linejoin:miter;stroke-miterlimit:4;stroke-opacity:1"
       id="path27108"
       d="m 251.3244,258.35457 19.378,-77.25197 11.7245,2.94214 -19.378,77.25837 z m 0,0" />
    <path
       style="display:inline;fill:#d9cfc7;fill-opacity:1;fill-rule:nonzero;stroke:#b8a89c;stroke-width:1.21746564;stroke-linecap:butt;stroke-linejoin:miter;stroke-miterlimit:4;stroke-opacity:1"
       id="path27110"
       d="M 49.4027,74.78981 83.6375,55.18998 95.4698,75.85526 61.2286,95.44882 Z m 0,0" />
    <path
       style="display:inline;fill:#d9cfc7;fill-opacity:1;fill-rule:nonzero;stroke:#b8a89c;stroke-width:1.21746564;stroke-linecap:butt;stroke-linejoin:miter;stroke-miterlimit:4;stroke-opacity:1"
       id="path27112"
       d="m 532.36882,90.4268 9.5812,-5.50405 41.0197,71.51348 -9.5812,5.51032 z m 0,0" />
    <path
       style="display:inline;fill:#d9cfc7;fill-opacity:1;fill-rule:nonzero;stroke:#b8a89c;stroke-width:1.21746564;stroke-linecap:butt;stroke-linejoin:miter;stroke-miterlimit:4;stroke-opacity:1"
       id="path27114"
       d="m 197.2233,289.43807 21.2549,-78.12081 10.8494,2.94853 -21.2486,78.12708 z m 0,0" />
    <path
       style="display:inline;fill:#d9cfc7;fill-opacity:1;fill-rule:nonzero;stroke:#b8a89c;stroke-width:1.21746564;stroke-linecap:butt;stroke-linejoin:miter;stroke-miterlimit:4;stroke-opacity:1"
       id="path27120"
       d="m 434.62912,89.7546 10.8558,-6.35363 33.7149,57.5189 -10.8558,6.36629 z m 0,0" />
    <path
       style="display:inline;fill:#d9cfc7;fill-opacity:1;fill-rule:nonzero;stroke:#b8a89c;stroke-width:1.21746564;stroke-linecap:butt;stroke-linejoin:miter;stroke-miterlimit:4;stroke-opacity:1"
       id="path27126"
       d="m 626.55752,192.33874 10.6275,-5.98583 28.1158,49.87803 -10.6274,5.99849 z m 0,0" />
    <path
       style="display:inline;fill:#d9cfc7;fill-opacity:1;fill-rule:nonzero;stroke:#b8a89c;stroke-width:1.21746564;stroke-linecap:butt;stroke-linejoin:miter;stroke-miterlimit:4;stroke-opacity:1"
       id="path27132"
       d="m 363.7498,213.23857 9.7968,-5.69422 29.9103,51.46324 -9.8031,5.70701 z m 0,0" />
    <path
       style="display:inline;fill:#d9cfc7;fill-opacity:1;fill-rule:nonzero;stroke:#b8a89c;stroke-width:1.21746564;stroke-linecap:butt;stroke-linejoin:miter;stroke-miterlimit:4;stroke-opacity:1"
       id="path27138"
       d="m 725.0074,215.12188 6.20147,-3.54462 2.69492,4.71138 23.42987,-13.35414 -3.07537,-5.39611 6.44241,-3.67788 9.54317,16.74657 -36.08645,20.58279 z m 0,0" />
    <path
       style="display:inline;fill:#d9cfc7;fill-opacity:1;fill-rule:nonzero;stroke:#b8a89c;stroke-width:1.21746564;stroke-linecap:butt;stroke-linejoin:miter;stroke-miterlimit:4;stroke-opacity:1"
       id="path27148"
       d="m 424.51532,236.54798 47.6524,-27.0253 4.7937,8.45885 -47.6524,27.01903 z m 0,0" />
    <path
       style="display:inline;fill:#d9cfc7;fill-opacity:1;fill-rule:nonzero;stroke:#b8a89c;stroke-width:1.21746564;stroke-linecap:butt;stroke-linejoin:miter;stroke-miterlimit:4;stroke-opacity:1"
       id="path27150"
       d="m 491.60902,197.32916 47.6524,-27.0253 4.7938,8.45245 -47.6524,27.01904 z m 0,0" />
    <path
       style="display:inline;fill:#d9cfc7;fill-opacity:1;fill-rule:nonzero;stroke:#b8a89c;stroke-width:1.21746564;stroke-linecap:butt;stroke-linejoin:miter;stroke-miterlimit:4;stroke-opacity:1"
       id="path27152"
       d="m 437.05142,264.37222 47.646,-27.0253 4.7874,8.45247 -47.6397,27.01908 z m 0,0" />
    <path
       style="display:inline;fill:#d9cfc7;fill-opacity:1;fill-rule:nonzero;stroke:#b8a89c;stroke-width:1.21746564;stroke-linecap:butt;stroke-linejoin:miter;stroke-miterlimit:4;stroke-opacity:1"
       id="path27156"
       d="m 530.26992,276.02041 29.8787,-16.42299 8.8963,16.21385 -9.7841,5.37066 -4.7557,-8.64892 -10.5957,5.82094 5.1298,9.334 -9.4988,5.20586 z m 0,0" />
    <path
       style="display:inline;fill:#d9cfc7;fill-opacity:1;fill-rule:nonzero;stroke:#b8a89c;stroke-width:1.21746564;stroke-linecap:butt;stroke-linejoin:miter;stroke-miterlimit:4;stroke-opacity:1"
       id="path27158"
       d="m 598.22612,208.62233 9.5875,-5.49125 22.4724,39.13018 -9.5875,5.5102 z m 0,0" />
    <path
       style="display:inline;fill:#d9cfc7;fill-opacity:1;fill-rule:nonzero;stroke:#b8a89c;stroke-width:1.21746564;stroke-linecap:butt;stroke-linejoin:miter;stroke-miterlimit:4;stroke-opacity:1"
       id="path27168"
       d="m 503.17502,44.05527 9.8919,-5.99859 18.8644,31.08342 -9.8919,6.00487 z m 0,0" />
    <path
       style="display:inline;fill:#d9cfc7;fill-opacity:1;fill-rule:nonzero;stroke:#b8a89c;stroke-width:1.21746564;stroke-linecap:butt;stroke-linejoin:miter;stroke-miterlimit:4;stroke-opacity:1"
       id="path27170"
       d="m 652.23212,140.96424 36.89811,-20.96327 4.88885,8.60465 -36.89806,20.97605 z m 0,0" />
    <path
       style="display:inline;fill:#d9cfc7;fill-opacity:1;fill-rule:nonzero;stroke:#b8a89c;stroke-width:1.21746564;stroke-linecap:butt;stroke-linejoin:miter;stroke-miterlimit:4;stroke-opacity:1"
       id="path27172"
       d="m 607.15422,166.67686 36.898,-20.96965 4.8889,8.61115 -36.8917,20.96955 z m 0,0" />
    <path
       style="display:inline;fill:#d9cfc7;fill-opacity:1;fill-rule:nonzero;stroke:#b8a89c;stroke-width:1.21746564;stroke-linecap:butt;stroke-linejoin:miter;stroke-miterlimit:4;stroke-opacity:1"
       id="path27174"
       d="m 556.77522,196.99307 36.1118,-21.15356 5.0284,8.56676 -36.1182,21.15983 z m 0,0" />
    <path
       style="display:inline;fill:#d9cfc7;fill-opacity:1;fill-rule:nonzero;stroke:#b8a89c;stroke-width:1.21746564;stroke-linecap:butt;stroke-linejoin:miter;stroke-miterlimit:4;stroke-opacity:1"
       id="path27176"
       d="m 492.67432,232.45803 8.6047,-4.93327 20.7667,36.28935 -8.6047,4.9332 z m 0,0" />
    <path
       style="display:inline;fill:#d9cfc7;fill-opacity:1;fill-rule:nonzero;stroke:#b8a89c;stroke-width:1.21746564;stroke-linecap:butt;stroke-linejoin:miter;stroke-miterlimit:4;stroke-opacity:1"
       id="path27178"
       d="m 536.99142,206.70103 8.611,-4.927 20.7793,36.29586 -8.6237,4.92049 z m 0,0" />
    <path
       style="display:inline;fill:#d9cfc7;fill-opacity:1;fill-rule:nonzero;stroke:#b8a89c;stroke-width:1.21746564;stroke-linecap:butt;stroke-linejoin:miter;stroke-miterlimit:4;stroke-opacity:1"
       id="path27184"
       d="m 343.0021,197.91874 19.9424,-11.70536 8.6427,14.71732 -18.1098,10.6275 -3.8933,-6.6263 -1.8262,1.078 z m 0,0" />
    <path
       style="display:inline;fill:#d9cfc7;fill-opacity:1;fill-rule:nonzero;stroke:#b8a89c;stroke-width:1.21746564;stroke-linecap:butt;stroke-linejoin:miter;stroke-miterlimit:4;stroke-opacity:1"
       id="path27186"
       d="m 732.02686,94.54834 22.56749,-13.44288 5.96054,10.00607 -22.57386,13.4365 z m 0,0" />
    <path
       style="display:inline;fill:#d9cfc7;fill-opacity:1;fill-rule:nonzero;stroke:#b8a89c;stroke-width:1.21746564;stroke-linecap:butt;stroke-linejoin:miter;stroke-miterlimit:4;stroke-opacity:1"
       id="path27188"
       d="m 772.31101,70.55419 22.56751,-13.43663 5.96051,9.99354 -22.57384,13.44276 z m 0,0" />
    <path
       style="display:inline;fill:#d9cfc7;fill-opacity:1;fill-rule:nonzero;stroke:#b8a89c;stroke-width:1.21746564;stroke-linecap:butt;stroke-linejoin:miter;stroke-miterlimit:4;stroke-opacity:1"
       id="path27190"
       d="m 699.77035,123.82466 22.56751,-13.43023 5.95418,9.99341 -22.57384,13.43649 z m 0,0" />
    <path
       style="display:inline;fill:#d9cfc7;fill-opacity:1;fill-rule:nonzero;stroke:#b8a89c;stroke-width:1.21746564;stroke-linecap:butt;stroke-linejoin:miter;stroke-miterlimit:4;stroke-opacity:1"
       id="path27194"
       d="m 469.63762,64.89168 9.8539,-5.56109 12.1556,21.53405 -9.8539,5.56096 z m 0,0" />
    <path
       style="display:inline;fill:#d9cfc7;fill-opacity:1;fill-rule:nonzero;stroke:#b8a89c;stroke-width:1.21746564;stroke-linecap:butt;stroke-linejoin:miter;stroke-miterlimit:4;stroke-opacity:1"
       id="path27198"
       d="m 833.96426,183.96225 8.88369,-4.71125 12.39024,23.34101 -8.87099,4.71778 z m 0,0" />
    <path
       style="display:inline;fill:#d9cfc7;fill-opacity:1;fill-rule:nonzero;stroke:#b8a89c;stroke-width:1.21746564;stroke-linecap:butt;stroke-linejoin:miter;stroke-miterlimit:4;stroke-opacity:1"
       id="path27204"
       d="m 801.13707,53.56027 18.06541,-10.27861 5.07277,8.9153 -18.06539,10.27873 z m 0,0" />
    <path
       style="display:inline;fill:#d9cfc7;fill-opacity:1;fill-rule:nonzero;stroke:#b8a89c;stroke-width:1.21746564;stroke-linecap:butt;stroke-linejoin:miter;stroke-miterlimit:4;stroke-opacity:1"
       id="path27206"
       d="m 591.56172,140.02578 16.0553,-9.06123 5.3835,9.53685 -16.0553,9.05483 z m 0,0" />
    <path
       style="display:inline;fill:#d9cfc7;fill-opacity:1;fill-rule:nonzero;stroke:#b8a89c;stroke-width:1.21746564;stroke-linecap:butt;stroke-linejoin:miter;stroke-miterlimit:4;stroke-opacity:1"
       id="path27218"
       d="m 409.5823,283.16052 11.54692,-7.60289 6.5946,10.02492 -11.5469,7.59656 z m 0,0" />
    <path
       style="display:inline;fill:#d9cfc7;fill-opacity:1;fill-rule:nonzero;stroke:#b8a89c;stroke-width:1.21746564;stroke-linecap:butt;stroke-linejoin:miter;stroke-miterlimit:4;stroke-opacity:1"
       id="path27220"
       d="m 801.35265,248.98897 14.16573,-7.96428 4.86352,8.64914 -14.17204,7.95778 z m 0,0" />
    <path
       style="display:inline;fill:#d9cfc7;fill-opacity:1;fill-rule:nonzero;stroke:#b8a89c;stroke-width:1.21746564;stroke-linecap:butt;stroke-linejoin:miter;stroke-miterlimit:4;stroke-opacity:1"
       id="path27224"
       d="m 813.56536,272.53918 14.17205,-7.95145 4.85718,8.64919 -14.1657,7.94501 z m 0,0" />
    <path
       style="display:inline;fill:#d9cfc7;fill-opacity:1;fill-rule:nonzero;stroke:#b8a89c;stroke-width:1.21746564;stroke-linecap:butt;stroke-linejoin:miter;stroke-miterlimit:4;stroke-opacity:1"
       id="path27226"
       d="m 753.44664,283.10969 14.65398,-8.8329 4.72403,7.83119 -14.64765,8.83907 z m 0,0" />
    <path
       style="display:inline;fill:#d9cfc7;fill-opacity:1;fill-rule:nonzero;stroke:#b8a89c;stroke-width:1.21746564;stroke-linecap:butt;stroke-linejoin:miter;stroke-miterlimit:4;stroke-opacity:1"
       id="path27236"
       d="m 541.09402,161.38217 7.0448,-4.10261 8.2115,14.1023 -7.0384,4.10261 z m 0,0" />
    <path
       style="display:inline;fill:#d9cfc7;fill-opacity:1;fill-rule:nonzero;stroke:#b8a89c;stroke-width:1.21746564;stroke-linecap:butt;stroke-linejoin:miter;stroke-miterlimit:4;stroke-opacity:1"
       id="path27238"
       d="m 661.97182,260.2315 10.0568,-6.12535 5.68788,9.34016 -10.06318,6.1254 z m 0,0" />
    <path
       style="display:inline;fill:none;stroke:#7dae7d;stroke-width:20.77807999;stroke-linecap:round;stroke-linejoin:round;stroke-miterlimit:4;stroke-opacity:1"
       id="path27578"
       d="m 757.73314,-141.88725 -14.04525,8.69967 -69.37652,39.31411 -6.88625,4.21669 -79.8899,48.98407 -108.4305,65.02023 -64.8047,36.36544 -79.87722,48.29283 -236.0045,139.30473 -3.9187,2.24462 -1.5662,0.89408 -3.2466,2.21302 -3.868,2.8154 L 2e-4,306.67893" />
    <path
       style="display:inline;fill:none;stroke:#94d494;stroke-width:18.50547981;stroke-linecap:round;stroke-linejoin:round;stroke-miterlimit:4;stroke-opacity:1"
       id="path28148"
       d="m 757.73314,-141.88725 -14.04525,8.69967 -69.37652,39.31411 -6.88625,4.21669 -79.8899,48.98407 -108.4305,65.02023 -64.8047,36.36544 -79.87722,48.29283 -236.0045,139.30473 -3.9187,2.24462 -1.5662,0.89408 -3.2466,2.21302 -3.868,2.8154 -84.6836,49.5357" />
    <path
       style="display:inline;fill:none;stroke:#f8d4a8;stroke-width:3.24657512;stroke-linecap:butt;stroke-linejoin:round;stroke-miterlimit:10;stroke-opacity:1"
       id="path29400"
       d="m 845.72676,25.00065 -3.80459,2.13054 1.2682,2.23196 c 0.4185,0.76095 0.88773,1.22391 1.39501,1.39504 0.51996,0.18391 1.10333,0.10149 1.7501,-0.25362 0.64044,-0.35502 1.01458,-0.80531 1.11603,-1.34427 0.11415,-0.52626 -0.038,-1.16673 -0.45656,-1.92769 z m 4.23576,-2.35895 -3.11975,1.72475 1.16674,2.05456 c 0.38678,0.69113 0.79895,1.12876 1.24281,1.31882 0.45656,0.18391 0.93847,0.13332 1.44575,-0.15198 0.53897,-0.29172 0.84335,-0.67218 0.91311,-1.14143 0.0635,-0.47562 -0.0952,-1.05893 -0.48193,-1.75006 z m 0.40581,-2.05443 1.97839,3.57634 c 0.58971,1.04627 0.81798,1.97835 0.68483,2.79007 -0.12048,0.82426 -0.59606,1.47751 -1.42037,1.95291 -0.62777,0.35527 -1.21115,0.4884 -1.75012,0.4058 -0.5263,-0.0887 -0.98918,-0.39302 -1.39501,-0.91302 0.23462,0.7736 0.21559,1.48378 -0.0507,2.13053 -0.25364,0.64047 -0.72921,1.15409 -1.42037,1.54734 -0.93212,0.51989 -1.81988,0.60853 -2.66324,0.25349 -0.84968,-0.34236 -1.59788,-1.09065 -2.25735,-2.2574 l -2.0545,-3.70309 z m 0,0" />
    <path
       style="display:inline;fill:none;stroke:#f8d4a8;stroke-width:3.24657512;stroke-linecap:butt;stroke-linejoin:round;stroke-miterlimit:10;stroke-opacity:1"
       id="path29402"
       d="m 853.29152,33.98577 c -0.39314,-0.67207 -0.96383,-1.0652 -1.72474,-1.16675 -0.74824,-0.10149 -1.58525,0.11415 -2.51102,0.63421 -0.93212,0.50721 -1.55989,1.09692 -1.87692,1.77539 -0.30437,0.69124 -0.26634,1.38237 0.12682,2.07989 0.36777,0.67219 0.92577,1.0652 1.67401,1.16675 0.76092,0.10132 1.60427,-0.10149 2.5364,-0.60876 0.9131,-0.5264 1.52818,-1.13515 1.85155,-1.82628 0.31707,-0.69752 0.29169,-1.38238 -0.0761,-2.05445 z m 1.03992,-0.60864 c 0.60872,1.11598 0.73554,2.18746 0.38045,3.22108 -0.35509,1.04639 -1.16674,1.92781 -2.43493,2.63787 -1.26821,0.71018 -2.44761,0.94487 -3.52556,0.71018 -1.08432,-0.24095 -1.92766,-0.91302 -2.5364,-2.029 -0.62776,-1.10331 -0.75457,-2.16864 -0.38045,-3.19598 0.36777,-1.03349 1.1921,-1.90226 2.46029,-2.61244 1.26819,-0.71018 2.43493,-0.94485 3.50021,-0.71018 1.06529,0.22189 1.90863,0.88142 2.53639,1.97847 z m 0,0" />
    <path
       style="display:inline;fill:none;stroke:#f8d4a8;stroke-width:3.24657512;stroke-linecap:butt;stroke-linejoin:round;stroke-miterlimit:10;stroke-opacity:1"
       id="path29404"
       d="m 857.21023,38.93797 0.71018,1.24298 -3.65238,2.02911 5.68149,1.59787 0.86238,1.54723 -4.66694,-1.29361 -2.89149,6.01138 -0.78628,-1.42048 2.35884,-4.94594 -2.13057,-0.60876 -2.53639,1.42036 -0.71019,-1.24271 z m 0,0" />
    <path
       style="display:inline;fill:none;stroke:#f8d4a8;stroke-width:3.24657512;stroke-linecap:butt;stroke-linejoin:round;stroke-miterlimit:10;stroke-opacity:1"
       id="path29406"
       d="m 860.41243,53.0404 c 0.1839,0.62142 0.20291,1.19207 0.0507,1.6994 -0.13948,0.50723 -0.45654,0.89398 -0.96383,1.16663 -0.79896,0.45657 -1.57255,0.49469 -2.33347,0.12682 -0.76092,-0.35503 -1.44574,-1.08438 -2.05446,-2.1813 -0.20293,-0.37409 -0.38047,-0.77362 -0.53265,-1.19208 -0.15215,-0.42485 -0.2917,-0.87516 -0.40584,-1.34438 l 1.19212,-0.65942 c 0.013,0.41859 0.0888,0.84333 0.22827,1.26817 0.13315,0.43765 0.31705,0.86876 0.558,1.29362 0.3868,0.69112 0.818,1.16674 1.29357,1.42036 0.48824,0.2536 0.93845,0.25987 1.34427,0.0253 0.40583,-0.22189 0.6341,-0.57703 0.68485,-1.06532 0.0507,-0.49455 -0.10149,-1.05882 -0.45656,-1.6993 l -0.558,-1.01456 1.0399,-0.55798 0.58338,1.0652 c 0.30436,0.53907 0.64675,0.90049 1.03991,1.09067 0.3868,0.20295 0.74189,0.20922 1.06528,0.0253 0.28533,-0.17112 0.44388,-0.48189 0.48194,-0.93847 0.0317,-0.44378 -0.10149,-0.93207 -0.40583,-1.47112 -0.19025,-0.31704 -0.41852,-0.64675 -0.68485,-0.98912 -0.25362,-0.3361 -0.57703,-0.69112 -0.96381,-1.06532 l 1.14137,-0.65942 c 0.35511,0.4058 0.6658,0.79893 0.93847,1.16662 0.28533,0.35529 0.53265,0.71031 0.73555,1.06534 0.48826,0.89409 0.6975,1.70582 0.63409,2.43493 -0.0507,0.72296 -0.40583,1.26829 -1.06528,1.62331 -0.42485,0.23456 -0.86238,0.29171 -1.31894,0.17764 -0.45654,-0.10148 -0.88137,-0.37421 -1.26817,-0.81173 z m 0,0" />
    <path
       style="display:inline;fill:none;stroke:#f8d4a8;stroke-width:3.24657512;stroke-linecap:butt;stroke-linejoin:round;stroke-miterlimit:10;stroke-opacity:1"
       id="path29410"
       d="m 862.54298,66.66079 1.06529,-0.60876 c 0.58971,0.76096 1.24918,1.09705 1.97838,1.01456 0.9765,-0.15199 2.51104,-0.83065 4.59087,-2.02912 l 1.26819,-0.71017 2.99294,5.22498 -7.71062,4.41327 -0.73554,-1.26816 6.69605,-3.82996 -1.52183,-2.6632 -0.78627,0.43124 c -1.97839,1.12865 -3.52559,1.73741 -4.64159,1.82616 -1.18577,0.13315 -2.25105,-0.46924 -3.19587,-1.80084 z m 0,0" />
    <path
       style="display:inline;fill:none;stroke:#f8d4a8;stroke-width:3.24657512;stroke-linecap:butt;stroke-linejoin:round;stroke-miterlimit:10;stroke-opacity:1"
       id="path29412"
       d="m 872.85975,79.37444 c 0.4185,-0.24107 0.64679,-0.57065 0.68481,-0.98911 0.0507,-0.40592 -0.0888,-0.90047 -0.40583,-1.47125 l -1.0399,-1.80084 -2.53639,1.44582 1.03991,1.80082 c 0.31707,0.57078 0.67216,0.94474 1.06528,1.11611 0.38682,0.16473 0.78629,0.13299 1.19212,-0.10149 z m 2.6632,-7.93896 0.73556,1.29362 -3.14512,1.80071 1.06528,1.82627 c 0.558,0.99564 0.79262,1.85789 0.71019,2.58725 -0.0698,0.74177 -0.48192,1.33147 -1.24284,1.77538 -0.77992,0.45657 -1.50915,0.51988 -2.1813,0.20284 -0.67846,-0.30427 -1.29354,-0.9574 -1.85155,-1.95291 l -1.80084,-3.11976 z m 0,0" />
    <path
       style="display:inline;fill:none;stroke:#94d494;stroke-width:3.24657512;stroke-linecap:butt;stroke-linejoin:round;stroke-miterlimit:10;stroke-opacity:1"
       id="path29794"
       d="m 407.7117,64.90434 c 0.241,0.37409 0.558,0.57705 0.9638,0.60876 0.4185,0.0378 0.9005,-0.10782 1.4458,-0.43125 l 1.69932,-1.01455 -1.44572,-2.38416 -1.6994,1.01456 c -0.5389,0.32331 -0.8877,0.67846 -1.0399,1.06533 -0.1648,0.39314 -0.1395,0.77349 0.076,1.14131 z m 1.4965,6.46783 0.3043,-4.71776 c -0.596,0.19029 -1.154,0.22827 -1.6993,0.12665 -0.539,-0.10148 -1.0019,-0.46922 -1.3951,-1.11598 -0.4375,-0.74189 -0.5199,-1.43302 -0.2536,-2.07976 0.2727,-0.65953 0.9004,-1.28095 1.8769,-1.87693 l 2.96762,-1.80096 4.5909,7.60926 -1.2429,0.76095 -1.953,-3.22131 -1.5725,0.93858 -0.279,4.56546 z m 0,0" />
    <path
       style="display:inline;fill:none;stroke:#94d494;stroke-width:3.24657512;stroke-linecap:butt;stroke-linejoin:round;stroke-miterlimit:10;stroke-opacity:1"
       id="path29798"
       d="m 394.922,69.63465 4.5908,7.60925 -1.2174,0.73551 -3.6778,-6.08735 0,8.31931 -1.5979,0.96391 -4.5909,-7.60926 1.2175,-0.7355 3.6777,6.08736 0,-8.31945 z m 0,0" />
    <path
       style="display:inline;fill:none;stroke:#94d494;stroke-width:3.24657512;stroke-linecap:butt;stroke-linejoin:round;stroke-miterlimit:10;stroke-opacity:1"
       id="path29800"
       d="m 383.9521,86.66653 -0.6341,-1.03987 c 0.7419,-0.64048 1.0653,-1.31895 0.9638,-2.02924 -0.1712,-0.97645 -0.875,-2.49823 -2.1305,-4.56547 l -0.7356,-1.24271 5.1489,-3.09445 4.5909,7.60925 -1.2682,0.76082 -3.9822,-6.59456 -2.6378,1.57254 0.4565,0.76095 c 1.1794,1.94663 1.8389,3.48747 1.9784,4.61623 0.1332,1.18569 -0.4502,2.27007 -1.7501,3.24651 z m 0,0" />
    <path
       style="display:inline;fill:none;stroke:#94d494;stroke-width:3.24657512;stroke-linecap:butt;stroke-linejoin:round;stroke-miterlimit:10;stroke-opacity:1"
       id="path29806"
       d="m 362.3548,94.10443 0.3804,0.60877 -5.7576,3.47492 c 0.5707,0.83066 1.2238,1.33148 1.953,1.49646 0.7229,0.17111 1.5029,0 2.3335,-0.50735 0.4883,-0.28532 0.9195,-0.62142 1.2936,-1.01456 0.3868,-0.38674 0.7355,-0.83704 1.0399,-1.34427 l 0.7102,1.19209 c -0.3424,0.45656 -0.7102,0.88142 -1.116,1.26829 -0.4059,0.393 -0.8497,0.72911 -1.319,1.01456 -1.2174,0.72911 -2.4032,0.9574 -3.5509,0.68473 -1.135,-0.26627 -2.0608,-1.01444 -2.79,-2.23196 -0.7419,-1.24911 -0.9955,-2.43504 -0.7609,-3.55102 0.2409,-1.12864 0.9258,-2.04167 2.0544,-2.73929 1.0273,-0.62143 2.0355,-0.78629 3.0183,-0.48191 0.9766,0.29173 1.8136,1.00191 2.5111,2.13054 z m -1.4965,0.4058 c -0.4058,-0.69112 -0.9258,-1.12225 -1.5472,-1.29349 -0.6087,-0.18391 -1.2175,-0.10149 -1.8262,0.25361 -0.7102,0.44391 -1.1477,0.98285 -1.3189,1.62332 -0.1839,0.64675 -0.1015,1.34426 0.2536,2.10522 z m 0,0" />
    <path
       style="display:inline;fill:none;stroke:#94d494;stroke-width:3.24657512;stroke-linecap:butt;stroke-linejoin:round;stroke-miterlimit:10;stroke-opacity:1"
       id="path29808"
       d="m 352.4375,95.74042 0.7102,1.16674 c -0.4756,0.019 -0.9131,0.0888 -1.3189,0.20297 -0.4059,0.10149 -0.799,0.26627 -1.1668,0.48189 -0.8116,0.49456 -1.2808,1.12876 -1.4204,1.90225 -0.1521,0.78 0.051,1.63611 0.6088,2.56178 0.5707,0.9322 1.2301,1.52178 1.9784,1.77551 0.7609,0.24084 1.5472,0.11416 2.3588,-0.38058 0.3678,-0.21551 0.6975,-0.48191 0.9892,-0.78615 0.3044,-0.30451 0.5643,-0.65954 0.7863,-1.06534 l 0.7102,1.16676 c -0.2537,0.35513 -0.5453,0.68473 -0.8624,0.98922 -0.3044,0.30427 -0.6722,0.58332 -1.0907,0.83693 -1.154,0.71018 -2.2827,0.91314 -3.3987,0.60876 -1.116,-0.31704 -2.0418,-1.09693 -2.79,-2.33351 -0.7419,-1.2174 -0.9892,-2.38414 -0.7356,-3.50011 0.2536,-1.12865 0.9829,-2.05458 2.1813,-2.76463 0.3868,-0.23468 0.7736,-0.43137 1.1667,-0.58344 0.4059,-0.15215 0.837,-0.24094 1.2936,-0.27905 z m 0,0" />
    <path
       style="display:inline;fill:none;stroke:#94d494;stroke-width:3.24657512;stroke-linecap:butt;stroke-linejoin:round;stroke-miterlimit:10;stroke-opacity:1"
       id="path29810"
       d="m 341.9496,102.88672 c -0.6722,0.39313 -1.0463,0.96378 -1.1161,1.72473 -0.082,0.74829 0.1458,1.57256 0.6849,2.48558 0.558,0.91325 1.1794,1.522 1.8769,1.82627 0.7102,0.29171 1.4013,0.22829 2.0798,-0.17751 0.6595,-0.4058 1.0209,-0.98925 1.0907,-1.75007 0.082,-0.76095 -0.1522,-1.598 -0.7102,-2.51114 -0.5454,-0.89408 -1.1668,-1.48366 -1.877,-1.77538 -0.6975,-0.28533 -1.3696,-0.22828 -2.029,0.17752 z m -0.6342,-1.03989 c 1.078,-0.65941 2.1433,-0.82438 3.1959,-0.50722 1.0462,0.32331 1.9403,1.10331 2.6886,2.3335 0.7609,1.25539 1.0399,2.42852 0.837,3.52545 -0.1903,1.08438 -0.8244,1.95303 -1.9023,2.61256 -1.0843,0.64662 -2.156,0.80533 -3.2212,0.48189 -1.0526,-0.33609 -1.9531,-1.12864 -2.714,-2.38427 -0.7419,-1.23018 -1.0145,-2.39042 -0.8116,-3.4748 0.2029,-1.078 0.8497,-1.94025 1.9276,-2.58711 z m 0,0" />
    <path
       style="display:inline;fill:none;stroke:#94d494;stroke-width:3.24657512;stroke-linecap:butt;stroke-linejoin:round;stroke-miterlimit:10;stroke-opacity:1"
       id="path29812"
       d="m 335.2281,114.47799 4.0075,-2.38414 -5.3771,-9.00418 1.395,-0.83704 6.0619,10.17092 -12.2,7.25411 -6.0619,-10.17092 1.3696,-0.8116 5.3771,9.00416 4.0329,-2.40958 -5.3771,-9.00418 1.395,-0.81171 z m 0,0" />
    <path
       style="display:inline;fill:none;stroke:#94d494;stroke-width:3.24657512;stroke-linecap:butt;stroke-linejoin:round;stroke-miterlimit:10;stroke-opacity:1"
       id="path29814"
       d="m 320.5805,119.15126 0.3551,0.60876 -5.783,3.42415 c 0.558,0.83067 1.1984,1.33789 1.9276,1.52191 0.742,0.17112 1.5282,0.013 2.3589,-0.48202 0.4883,-0.28533 0.9258,-0.62129 1.3189,-1.01456 0.3868,-0.38686 0.7229,-0.82426 1.0146,-1.31882 l 0.7102,1.16663 c -0.3551,0.47562 -0.7356,0.90675 -1.1414,1.29362 -0.4058,0.37408 -0.8497,0.70378 -1.3189,0.98911 -1.2175,0.71018 -2.4033,0.92593 -3.551,0.63409 -1.135,-0.28533 -2.0544,-1.03989 -2.7646,-2.2574 -0.7419,-1.24912 -0.9892,-2.4348 -0.7356,-3.55078 0.241,-1.12876 0.9321,-2.03552 2.0798,-2.7141 1.0273,-0.60864 2.0355,-0.76084 3.0184,-0.45646 0.9955,0.29173 1.8325,1.00818 2.511,2.15587 z m -1.4965,0.38048 c -0.4058,-0.69113 -0.9258,-1.12864 -1.5472,-1.31895 -0.6277,-0.18378 -1.2428,-0.10148 -1.8516,0.25374 -0.7101,0.42473 -1.1477,0.9574 -1.3189,1.59788 -0.1839,0.64687 -0.1015,1.35692 0.2537,2.13054 z m 0,0" />
    <path
       style="display:inline;fill:none;stroke:#94d494;stroke-width:3.24657512;stroke-linecap:butt;stroke-linejoin:round;stroke-miterlimit:10;stroke-opacity:1"
       id="path29816"
       d="m 308.6151,127.02679 1.4964,2.51103 1.8009,-1.06522 c 0.558,-0.31716 0.9131,-0.6722 1.0653,-1.06534 0.1648,-0.38686 0.1331,-0.79253 -0.1015,-1.21751 -0.241,-0.4058 -0.5707,-0.62142 -0.9892,-0.6594 -0.4249,-0.0317 -0.9131,0.11399 -1.4711,0.43111 z m -1.8516,-3.11977 1.2682,2.13053 1.6233,-0.96378 c 0.4882,-0.28533 0.8243,-0.61515 1.0145,-0.98911 0.1839,-0.36793 0.1776,-0.71669 -0.025,-1.03989 -0.2029,-0.33609 -0.5073,-0.50746 -0.9131,-0.50746 -0.4058,-0.013 -0.856,0.12064 -1.3443,0.40593 z m -1.8516,-0.22829 2.993,-1.77538 c 0.8941,-0.53907 1.6803,-0.78627 2.3588,-0.73563 0.6722,0.038 1.1921,0.36781 1.5472,0.98923 0.2854,0.45646 0.3868,0.90036 0.3044,1.31895 -0.089,0.42474 -0.3551,0.80532 -0.8117,1.1413 0.6595,-0.21563 1.2429,-0.24094 1.7501,-0.0762 0.52,0.15215 0.9385,0.49456 1.2429,1.01456 0.4058,0.67846 0.4565,1.35693 0.1521,2.029 -0.3044,0.67858 -0.9511,1.30627 -1.9276,1.87704 l -3.0944,1.85161 z m 0,0" />
    <path
       style="display:inline;fill:none;stroke:#94d494;stroke-width:3.24657512;stroke-linecap:butt;stroke-linejoin:round;stroke-miterlimit:10;stroke-opacity:1"
       id="path29818"
       d="m 300.0547,127.6926 c -0.6721,0.4058 -1.0462,0.98924 -1.1159,1.75018 -0.082,0.74817 0.1458,1.57255 0.6848,2.48557 0.539,0.93218 1.154,1.5471 1.8515,1.8516 0.6912,0.2916 1.3824,0.22816 2.0799,-0.17764 0.6594,-0.38674 1.0272,-0.95111 1.116,-1.6994 0.082,-0.76084 -0.1458,-1.60416 -0.6848,-2.53622 -0.5263,-0.89409 -1.1541,-1.49658 -1.877,-1.80096 -0.7102,-0.30427 -1.395,-0.25989 -2.0545,0.12682 z m -0.6087,-1.03989 c 1.078,-0.64047 2.1369,-0.79254 3.1705,-0.45669 1.0463,0.34262 1.9404,1.13515 2.6886,2.38427 0.7419,1.25551 1.0145,2.42226 0.8116,3.50024 -0.2029,1.08427 -0.8497,1.94665 -1.9276,2.58711 -1.1034,0.64676 -2.175,0.79894 -3.2212,0.45645 -1.0527,-0.35502 -1.9404,-1.15384 -2.6886,-2.40947 -0.7419,-1.24911 -1.0019,-2.4096 -0.7863,-3.4748 0.2029,-1.078 0.856,-1.94036 1.953,-2.58711 z m 0,0" />
    <path
       style="display:inline;fill:none;stroke:#94d494;stroke-width:3.24657512;stroke-linecap:butt;stroke-linejoin:round;stroke-miterlimit:10;stroke-opacity:1"
       id="path29820"
       d="m 285.3437,131.76989 1.395,-0.81172 2.4603,4.1851 4.9967,-2.94225 -2.4603,-4.185 1.3696,-0.81171 6.0113,10.19636 -1.3696,0.81149 -2.8662,-4.8444 -4.9966,2.94226 2.8661,4.8444 -1.3951,0.81172 z m 0,0" />
    <path
       style="display:inline;fill:#ffffff;fill-opacity:1;fill-rule:evenodd;stroke:#ffffff;stroke-width:2.01289654;stroke-miterlimit:4;stroke-opacity:1"
       id="path41206"
       d="m 475.29969,169.27788 c 0,13.51078 -10.95265,24.46349 -24.46349,24.46349 -13.51084,0 -24.46356,-10.95271 -24.46356,-24.46349 0,-13.51086 10.95272,-24.46356 24.46356,-24.46356 13.51084,0 24.46349,10.9527 24.46349,24.46356 z" />
    <path
       d="m 451.08097,142.34562 c 7.23548,0 13.78838,2.95791 18.54378,7.69056 4.73265,4.7554 7.69055,11.30829 7.69055,18.54379 0,7.25824 -2.93514,13.81114 -7.69055,18.56654 -4.73264,4.73265 -11.3083,7.6678 -18.54378,7.6678 -7.25824,0 -13.81115,-2.93515 -18.56656,-7.6678 -4.73265,-4.7554 -7.66779,-11.3083 -7.66779,-18.56654 0,-7.2355 2.93514,-13.81114 7.66779,-18.54379 4.75541,-4.75541 11.33108,-7.69056 18.56656,-7.69056 z"
       id="path4498-2"
       style="display:inline;fill:none;fill-rule:evenodd;stroke:#009846;stroke-width:3.8528614;stroke-miterlimit:4;stroke-dasharray:none" />
    <path
       style="opacity:1;fill:#94d494;fill-opacity:1;fill-rule:evenodd;stroke:none;stroke-width:2;stroke-linecap:round;stroke-miterlimit:4;stroke-dasharray:none;stroke-opacity:1"
       d="m 327.79643,123.03025 17.88275,-8.76839 124.22831,203.84388 -17.88275,8.76839 z"
       id="rect6417" />
    <g
       id="icon_27_"
       transform="matrix(0.07048194,0,0,0.07048194,415.15507,131.58983)"
       style="fill:#2c2c2c;fill-opacity:1">
      <g
         id="g23862"
         style="fill:#2c2c2c;fill-opacity:1">
        <g
           id="g23864"
           style="fill:#2c2c2c;fill-opacity:1">
          <path
             id="path23866"
             d="m 318.925,544.814 -52.142,-6.173 c -3.692,-0.404 -6.749,-3.833 -6.749,-7.593 l 0,-52.228 c 0,-3.699 3.057,-7.165 6.749,-7.557 l 52.142,-6.186 c 4.997,-23.738 14.361,-45.895 27.239,-65.516 L 313.59,358.235 c -2.334,-2.878 -2.071,-7.448 0.563,-10.093 l 36.953,-36.966 c 2.645,-2.621 7.183,-2.927 10.159,-0.563 l 41.272,32.507 c 19.664,-12.776 41.785,-22.17 65.535,-27.155 l 6.148,-52.202 c 0.404,-3.674 3.822,-6.711 7.588,-6.711 l 52.239,0 c 3.748,0 7.141,3.038 7.588,6.711 l 6.173,52.202 c 23.725,4.986 45.87,14.38 65.51,27.155 l 41.295,-32.507 c 2.921,-2.364 7.484,-2.058 10.129,0.563 l 36.917,36.966 c 2.67,2.645 2.964,7.214 0.612,10.129 l -32.532,41.289 c 12.836,19.621 22.188,41.778 27.185,65.516 l 52.141,6.186 c 3.742,0.391 6.749,3.858 6.78,7.557 l -0.03,52.227 c 0.03,3.76 -3.008,7.189 -6.749,7.593 l -52.141,6.173 c -4.997,23.763 -14.349,45.895 -27.198,65.554 l 32.544,41.302 c 2.352,2.902 2.058,7.446 -0.612,10.104 l -36.917,36.941 c -2.646,2.67 -7.208,2.891 -10.148,0.576 l -41.277,-32.531 c -19.64,12.799 -41.785,22.206 -65.51,27.167 l -6.173,52.13 c -0.447,3.748 -3.84,6.76 -7.588,6.785 l -52.239,-0.025 c -3.766,0.025 -7.184,-3.013 -7.588,-6.76 l -6.148,-52.13 c -14.779,-3.062 -28.808,-8.047 -42.117,-14.342 l 42.625,-41.314 c 12.5,3.711 25.654,5.721 39.372,5.721 76.767,0 139.019,-62.259 139.019,-139.057 0,-76.822 -62.252,-139.055 -139.019,-139.055 -76.822,0 -139.067,62.234 -139.067,139.055 0,13.192 1.959,25.868 5.388,37.922 l -42.22,40.946 c -5.626,-12.42 -10.255,-25.33 -13.127,-38.987 z"
             style="fill:#2c2c2c;fill-opacity:1" />
        </g>
      </g>
      <path
         id="path23868"
         d="m 266.293,739.661 c 16.473,17.123 43.518,17.747 60.794,1.531 l 0.448,0.477 143.912,-139.533 c 34.859,12.359 75.811,4.703 104.901,-23.284 29.016,-27.865 38.423,-68.235 27.675,-103.474 l -34.228,32.924 c -7.906,7.582 -20.504,7.361 -28.116,-0.576 L 508.596,473.32 c -7.6,-7.912 -7.349,-20.515 0.576,-28.159 l 34.185,-32.837 c -34.742,-12.151 -75.492,-4.312 -104.454,23.517 -28.851,27.717 -38.228,67.782 -27.742,102.837 l -144.237,139.863 0.03,0.025 c -16.774,16.719 -17.135,43.947 -0.661,61.095 z m 14.263,-29.873 c 5.64,-5.438 14.599,-5.268 20.031,0.342 5.421,5.67 5.249,14.686 -0.379,20.173 -5.598,5.438 -14.582,5.292 -20.014,-0.355 -5.443,-5.659 -5.278,-14.685 0.362,-20.16 z"
         style="fill:#2c2c2c;fill-opacity:1" />
    </g>
    <path
       style="opacity:1;fill:#94d494;fill-opacity:1;fill-rule:evenodd;stroke:none;stroke-width:2;stroke-linecap:round;stroke-miterlimit:4;stroke-dasharray:none;stroke-opacity:1"
       d="m 745.41399,-128.30673 15.46443,-13.78592 153.50766,261.99075 -15.46443,13.78592 z"
       id="rect6417-7" />
    <path
       style="opacity:1;fill:#94d494;fill-opacity:1;fill-rule:evenodd;stroke:none;stroke-width:2;stroke-linecap:round;stroke-miterlimit:4;stroke-dasharray:none;stroke-opacity:1"
       d="m 307.15394,315.91978 14.90151,13.73917 589.78808,-342.441379 -1.9051,-16.103111 z"
       id="rect6417-7-7" />
    <text
       xml:space="preserve"
       style="font-style:normal;font-weight:normal;font-size:40px;line-height:125%;font-family:Sans;letter-spacing:0px;word-spacing:0px;fill:#000000;fill-opacity:1;stroke:none;stroke-width:1px;stroke-linecap:butt;stroke-linejoin:miter;stroke-opacity:1"
       x="271.57651"
       y="263.82486"
       id="text6450"
       transform="matrix(0.86815831,-0.49628737,0.49628737,0.86815831,0,0)"><tspan
         id="tspan6452"
         x="271.57651"
         y="263.82486"
         style="font-size:17.5px">ул.Новое шоссе</tspan></text>
    <text
       xml:space="preserve"
       style="font-style:normal;font-weight:normal;font-size:40px;line-height:125%;font-family:Sans;letter-spacing:0px;word-spacing:0px;fill:#000000;fill-opacity:1;stroke:none;stroke-width:1px;stroke-linecap:butt;stroke-linejoin:miter;stroke-opacity:1"
       x="312.25519"
       y="-219.82744"
       id="text6450-8"
       transform="matrix(0.5219639,0.85296758,-0.85296758,0.5219639,0,0)"><tspan
         id="tspan6452-4"
         x="312.25519"
         y="-219.82744"
         style="font-size:17.5px">ул.Полевая</tspan></text>
    <text
       xml:space="preserve"
       style="font-style:normal;font-weight:normal;font-size:40px;line-height:125%;font-family:Sans;letter-spacing:0px;word-spacing:0px;fill:#000000;fill-opacity:1;stroke:none;stroke-width:1px;stroke-linecap:butt;stroke-linejoin:miter;stroke-opacity:1"
       x="286.11029"
       y="438.11108"
       id="text6450-8-0"
       transform="matrix(0.87170618,-0.49002892,0.49002892,0.87170618,0,0)"><tspan
         id="tspan6452-4-3"
         x="286.11029"
         y="438.11108"
         style="font-size:17.5px">ул.Энергетиков</tspan></text>
    <text
       xml:space="preserve"
       style="font-style:normal;font-weight:normal;font-size:40px;line-height:125%;font-family:Sans;letter-spacing:0px;word-spacing:0px;fill:#000000;fill-opacity:1;stroke:none;stroke-width:1px;stroke-linecap:butt;stroke-linejoin:miter;stroke-opacity:1"
       x="434.836"
       y="-709.68671"
       id="text6450-8-6"
       transform="matrix(0.51230336,0.85880456,-0.85880456,0.51230336,0,0)"><tspan
         id="tspan6452-4-4"
         x="434.836"
         y="-709.68671"
         style="font-size:17.5px">ул.Вокзальная</tspan></text>
    <text
       xml:space="preserve"
       style="font-style:normal;font-weight:normal;font-size:40px;line-height:125%;font-family:Sans;letter-spacing:0px;word-spacing:0px;fill:#000000;fill-opacity:1;stroke:none;stroke-width:1px;stroke-linecap:butt;stroke-linejoin:miter;stroke-opacity:1"
       x="447.76324"
       y="334.5596"
       id="text6450-8-9-2"
       transform="matrix(0.86828507,-0.49606556,0.49606556,0.86828507,0,0)"><tspan
         id="tspan6452-4-6-3"
         x="447.76324"
         y="334.5596"
         style="font-size:17.5px">ЭКО</tspan></text>
    <path
       style="display:inline;fill:#d9cfc7;fill-opacity:1;fill-rule:nonzero;stroke:#b8a89c;stroke-width:1.21746564;stroke-linecap:butt;stroke-linejoin:miter;stroke-miterlimit:4;stroke-opacity:1"
       id="path27150-6"
       d="m 487.10766,189.40192 47.6524,-27.0253 4.7938,8.45245 -47.6524,27.01904 z m 0,0" />
    <path
       style="display:inline;fill:#d9cfc7;fill-opacity:1;fill-rule:nonzero;stroke:none;stroke-width:1.21746564;stroke-linecap:butt;stroke-linejoin:miter;stroke-miterlimit:4;stroke-opacity:1"
       id="path27150-6-0"
       d="m 489.68721,192.51963 46.53632,-26.08942 4.68152,8.15974 -46.53631,26.08339 z m 0,0" />
    <text
       xml:space="preserve"
       style="font-style:normal;font-weight:normal;font-size:40px;line-height:125%;font-family:Sans;letter-spacing:0px;word-spacing:0px;fill:#000000;fill-opacity:1;stroke:none;stroke-width:1px;stroke-linecap:butt;stroke-linejoin:miter;stroke-opacity:1"
       x="344.8082"
       y="416.47809"
       id="text6450-8-9"
       transform="matrix(0.87479717,-0.48448933,0.48448933,0.87479717,0,0)"><tspan
         id="tspan6452-4-6"
         x="344.8082"
         y="416.47809"
         style="font-size:17.5px">АТБ</tspan></text>
    <path
       style="display:inline;fill:#d9cfc7;fill-opacity:1;fill-rule:nonzero;stroke:#b8a89c;stroke-width:1.21746564;stroke-linecap:butt;stroke-linejoin:miter;stroke-miterlimit:4;stroke-opacity:1"
       id="path27150-6-3"
       d="m 419.74186,228.09827 47.6524,-27.0253 4.7938,8.45245 -47.6524,27.01904 z m 0,0" />
    <path
       style="display:inline;fill:#d9cfc7;fill-opacity:1;fill-rule:nonzero;stroke:none;stroke-width:1.21746564;stroke-linecap:butt;stroke-linejoin:miter;stroke-miterlimit:4;stroke-opacity:1"
       id="path27150-6-0-6"
       d="m 422.32141,231.21598 46.53632,-26.08942 4.68152,8.15974 -46.53631,26.08339 z m 0,0" />
    <path
       d="m 427.1325,179.81584 c 0,0 22.08831,30.892 24.14532,46.43342"
       id="path41228"
       style="display:inline;fill:none;fill-rule:evenodd;stroke:#009846;stroke-width:3.7146709;stroke-linecap:butt;stroke-linejoin:miter;stroke-miterlimit:4;stroke-dasharray:none;stroke-opacity:1" />
    <path
       d="m 475.00797,179.963 c 0,0 -22.0883,30.89198 -24.14532,46.43341"
       id="path41228-7"
       style="display:inline;fill:none;fill-rule:evenodd;stroke:#009846;stroke-width:3.7146709;stroke-linecap:butt;stroke-linejoin:miter;stroke-miterlimit:4;stroke-dasharray:none;stroke-opacity:1" />
    <path
       style="display:inline;fill:#009846;fill-opacity:1;fill-rule:evenodd;stroke:#009846;stroke-width:6.58250713;stroke-miterlimit:4;stroke-opacity:1"
       id="path5824"
       d="m 450.97798,215.09066 -8.28143,-18.66776 16.56285,0 z" />
    <path
       style="display:inline;fill:#d9cfc7;fill-opacity:1;fill-rule:nonzero;stroke:#b8a89c;stroke-width:0.84361482;stroke-linecap:butt;stroke-linejoin:miter;stroke-miterlimit:4;stroke-opacity:1"
       id="path27236-8"
       d="m 480.76703,200.31617 5.00284,-2.77388 5.83137,9.53492 -4.9983,2.77388 z m 0,0" />
  </g>
  <rect
     style="opacity:1;fill:none;fill-opacity:1;fill-rule:evenodd;stroke:#ffffff;stroke-width:1.01010764;stroke-linecap:round;stroke-miterlimit:4;stroke-dasharray:none;stroke-opacity:1"
     id="rect4259"
     width="920"
     height="300"
     x="0"
     y="-7.1054274e-15" />
</svg>
