<?xml version="1.0" encoding="UTF-8" standalone="no"?>
<svg
   xmlns:dc="http://purl.org/dc/elements/1.1/"
   xmlns:cc="http://creativecommons.org/ns#"
   xmlns:rdf="http://www.w3.org/1999/02/22-rdf-syntax-ns#"
   xmlns:svg="http://www.w3.org/2000/svg"
   xmlns="http://www.w3.org/2000/svg"
   width="150"
   height="150"
   viewBox="0 0 150 150"
   id="svg7700"
   version="1.1">
  <defs
     id="defs7702">
    <clipPath
       id="clipPath9468-0"
       clipPathUnits="userSpaceOnUse">
      <path
         id="path9470-7"
         d="m 440,340 -240,0 0,150 c 0,11.047 8.953,20 20,20 l 140,0 80,-79.996 0,-90.004 z" />
    </clipPath>
  </defs>
  <metadata
     id="metadata7705">
    <rdf:RDF>
      <cc:Work
         rdf:about="">
        <dc:format>image/svg+xml</dc:format>
        <dc:type
           rdf:resource="http://purl.org/dc/dcmitype/StillImage" />
        <dc:title></dc:title>
      </cc:Work>
    </rdf:RDF>
  </metadata>
  <path
     d="m 149.99995,74.998574 c 0,41.423036 -33.57694,75.001406 -75,75.001406 -41.422875,0 -75,-33.57837 -75,-75.001406 0,-41.42116 33.577125,-74.99859198592 75,-74.99859198592 41.42306,0 75,33.57743198592 75,74.99859198592"
     style="fill:#007c3a;fill-opacity:1;fill-rule:nonzero;stroke:none"
     id="path9454" />
  <path
     d="m 119.5312,96.09474 c 0,3.882678 -3.14756,7.03112 -7.03125,7.03112 l -75,0 c -3.8835,0 -7.03125,-3.148442 -7.03125,-7.03112 l 0,-23.43706 c 0,-9.060767 7.345312,-16.405942 16.40625,-16.405942 l 56.25,0 c 9.06094,0 16.40625,7.345175 16.40625,16.405942 l 0,23.43706"
     style="fill:#2e2e2e;fill-opacity:1;fill-rule:nonzero;stroke:none"
     id="path9456" />
  <path
     d="m 103.12495,70.313974 -56.25,0 0,-35.15559 c 0,-2.589138 2.098312,-4.687412 4.6875,-4.687412 l 32.8125,0 18.75,18.748711 0,21.094291"
     style="fill:#f5f5e6;fill-opacity:1;fill-rule:nonzero;stroke:none"
     id="path9458" />
  <path
     d="m 103.12495,107.81327 c 0,2.58914 -2.09831,4.68741 -4.6875,4.68741 l -46.875,0 c -2.589188,0 -4.6875,-2.09827 -4.6875,-4.68741 l 0,-16.405942 56.25,0 0,16.405942"
     style="fill:#f5f5e6;fill-opacity:1;fill-rule:nonzero;stroke:none"
     id="path9460" />
  <path
     d="m 112.49995,79.688798 c 0,2.589139 -2.09831,4.687412 -4.6875,4.687412 -2.58919,0 -4.6875,-2.098273 -4.6875,-4.687412 0,-2.589138 2.09831,-4.687412 4.6875,-4.687412 2.58919,0 4.6875,2.098274 4.6875,4.687412"
     style="fill:#054a6f;fill-opacity:1;fill-rule:nonzero;stroke:none"
     id="path9462" />
  <g
     transform="matrix(0.234375,0,0,-0.2343706,-5e-5,149.99998)"
     id="g9464">
    <g
       id="g9466"
       clip-path="url(#clipPath9468-0)">
      <path
         d="m 440,429.996 -60,0 c -11.047,0 -20,8.953 -20,20 l 0,60 80,0 0,-80"
         style="fill:#e6e6e6;fill-opacity:1;fill-rule:nonzero;stroke:none"
         id="path9472" />
    </g>
  </g>
  <path
     d="m 96.0937,103.12586 c 0,1.29447 -1.048312,2.3437 -2.34375,2.3437 l -37.5,0 c -1.295438,0 -2.34375,-1.04923 -2.34375,-2.3437 l 0,-2.34371 c 0,-1.294473 1.048312,-2.343704 2.34375,-2.343704 l 37.5,0 c 1.295438,0 2.34375,1.049231 2.34375,2.343704 l 0,2.34371"
     style="fill:#054a6f;fill-opacity:1;fill-rule:nonzero;stroke:none"
     id="path9474" />
</svg>
