<?xml version="1.0" encoding="UTF-8" standalone="no"?>
<svg
   xmlns:dc="http://purl.org/dc/elements/1.1/"
   xmlns:cc="http://creativecommons.org/ns#"
   xmlns:rdf="http://www.w3.org/1999/02/22-rdf-syntax-ns#"
   xmlns:svg="http://www.w3.org/2000/svg"
   xmlns="http://www.w3.org/2000/svg"
   xmlns:xlink="http://www.w3.org/1999/xlink"
   width="150"
   height="150"
   viewBox="0 0 150 150"
   id="svg7011"
   version="1.1">
  <defs
     id="defs7013">
    <clipPath
       id="SVGID_2_-6">
      <use
         height="100%"
         width="100%"
         y="0"
         x="0"
         xlink:href="#SVGID_1_"
         style="overflow:visible"
         id="use9226-9" />
    </clipPath>
  </defs>
  <metadata
     id="metadata7016">
    <rdf:RDF>
      <cc:Work
         rdf:about="">
        <dc:format>image/svg+xml</dc:format>
        <dc:type
           rdf:resource="http://purl.org/dc/dcmitype/StillImage" />
        <dc:title></dc:title>
      </cc:Work>
    </rdf:RDF>
  </metadata>
  <ellipse
     ry="74.999992"
     rx="74.750351"
     style="fill:#007c3a;fill-opacity:1"
     cx="74.750359"
     cy="74.999969"
     id="circle9287" />
  <path
     style="fill:#eaebe1;stroke:#ffffff;stroke-width:0.20256154;stroke-miterlimit:10"
     d="m 113.19195,108.00153 -76.306246,0 c -1.334681,0 -2.426687,-1.09564 -2.426687,-2.43478 l 0,-50.05206 c 0,-1.339141 1.092006,-2.434777 2.426687,-2.434777 l 76.306246,0 c 1.33467,0 2.42669,1.095636 2.42669,2.434777 l 0,50.05206 c 0,1.33914 -1.09202,2.43478 -2.42669,2.43478 z"
     id="path9293" />
  <rect
     x="38.503513"
     y="57.812756"
     style="fill:#054a6f;stroke:#26424b;stroke-width:2.02561545;stroke-miterlimit:10;fill-opacity:1"
     width="73.070457"
     height="41.375671"
     id="rect9295" />
  <rect
     x="67.199509"
     y="100.54821"
     style="fill:#eaebe1"
     width="16.050329"
     height="17.934084"
     id="rect9297" />
  <path
     style="fill:#eaebe1"
     d="m 95.453656,122.53505 -40.457771,0 c -1.334681,0 -2.426688,-1.09564 -2.426688,-2.43478 l 0,-1.494 c 0,-1.33907 1.092007,-2.43477 2.426688,-2.43477 l 40.457771,0 c 1.334681,0 2.426688,1.0957 2.426688,2.43477 l 0,1.494 c 0,1.33914 -1.092007,2.43478 -2.426688,2.43478 z"
     id="path9299" />
  <g
     transform="matrix(0.20222413,0,0,0.20289951,22.980971,23.056653)"
     id="g9301">
    <circle
       style="fill:none"
       cx="256"
       cy="256.005"
       r="256"
       id="circle9303" />
  </g>
  <ellipse
     ry="1.8873713"
     rx="1.881089"
     style="fill:#26424b"
     cx="75.22477"
     cy="103.92125"
     id="circle9305" />
  <rect
     x="47.851509"
     y="36.495285"
     style="fill:#f8f8f8"
     width="54.37463"
     height="61.633774"
     id="rect9307" />
  <rect
     x="47.851509"
     y="93.822937"
     style="fill:#af5f00;fill-opacity:1"
     width="54.37463"
     height="4.355238"
     id="rect9309" />
  <rect
     x="47.851509"
     y="49.503597"
     style="fill:#26424b"
     width="54.37463"
     height="12.628872"
     id="rect9311" />
  <g
     style="fill:#af5f00;fill-opacity:1"
     transform="matrix(0.20222413,0,0,0.20289951,22.980971,23.056653)"
     id="g9313">
    <g
       style="fill:#af5f00;fill-opacity:1"
       id="g9315">
      <path
         style="fill:#af5f00;fill-opacity:1"
         d="m 164.131,100.558 c 0,5.32 -4.33,9.66 -9.67,9.66 -5.34,0 -9.67,-4.34 -9.67,-9.66 0,-5.34 4.33,-9.68 9.67,-9.68 5.34,0 9.67,4.34 9.67,9.68 z"
         id="path9317" />
      <g
         style="fill:#af5f00;fill-opacity:1"
         id="g9319">
        <path
           style="fill:#af5f00;fill-opacity:1"
           d="m 138.783,109.069 c -1.072,0 -4.334,0 -5.148,-2.235 -0.722,-1.98 0.964,-4.253 5.154,-6.948 3.456,-2.224 8.271,-4.509 13.56,-6.437 6.928,-2.525 13.578,-4.033 17.79,-4.033 1.071,0 4.334,0 5.148,2.235 0.722,1.98 -0.964,4.253 -5.154,6.948 -3.456,2.224 -8.271,4.509 -13.56,6.437 -6.929,2.525 -13.579,4.033 -17.79,4.033 z m -2.254,-3.303 c 0.255,0.114 0.884,0.303 2.254,0.303 3.821,0 10.244,-1.476 16.763,-3.852 10.451,-3.81 16.219,-7.985 16.847,-9.5 -0.255,-0.114 -0.884,-0.303 -2.254,-0.303 -3.822,0 -10.245,1.476 -16.763,3.852 -10.451,3.81 -16.22,7.986 -16.847,9.5 z"
           id="path9321" />
      </g>
    </g>
    <g
       style="fill:#af5f00;fill-opacity:1"
       id="g9323">
      <path
         style="fill:#af5f00;fill-opacity:1"
         d="m 144.828,99.923 c -5.053,2.545 -7.871,4.812 -8.299,5.843 0.255,0.114 0.884,0.303 2.254,0.303 1.856,0 4.329,-0.351 7.126,-0.981 2.961,-0.667 6.285,-1.649 9.637,-2.87 3.254,-1.186 6.054,-2.408 8.386,-3.574 5.158,-2.578 8.028,-4.883 8.461,-5.926 -0.255,-0.114 -0.884,-0.303 -2.254,-0.303 -2.219,0 -5.319,0.5 -8.801,1.383 -2.515,0.637 -5.229,1.473 -7.961,2.469 -3.333,1.214 -6.184,2.465 -8.549,3.656 z"
         id="path9325" />
      <path
         style="fill:#af5f00;fill-opacity:1"
         d="m 145.909,105.087 c -2.797,0.63 -5.27,0.981 -7.126,0.981 -1.37,0 -1.999,-0.189 -2.254,-0.303 0.427,-1.031 3.245,-3.298 8.299,-5.843 0.094,-1.38 0.471,-2.68 1.084,-3.841 -2.706,1.236 -5.142,2.528 -7.122,3.802 -4.19,2.695 -5.876,4.968 -5.154,6.948 0.814,2.235 4.076,2.235 5.148,2.235 2.392,0 5.573,-0.488 9.144,-1.371 -0.813,-0.745 -1.5,-1.623 -2.019,-2.608 z"
         id="path9327" />
      <path
         style="fill:#af5f00;fill-opacity:1"
         d="m 175.287,91.65 c -0.814,-2.235 -4.077,-2.235 -5.148,-2.235 -3.045,0 -7.367,0.791 -12.144,2.182 1.266,0.498 2.403,1.249 3.343,2.201 3.483,-0.882 6.582,-1.383 8.801,-1.383 1.37,0 1.999,0.189 2.254,0.303 -0.432,1.043 -3.303,3.347 -8.461,5.926 0.128,0.628 0.196,1.278 0.196,1.945 0,0.459 -0.043,0.906 -0.105,1.348 2.304,-1.093 4.378,-2.223 6.11,-3.337 4.19,-2.697 5.876,-4.97 5.154,-6.95 z"
         id="path9329" />
      <path
         style="fill:#af5f00;fill-opacity:1"
         d="m 157.995,91.597 c -1.831,0.533 -3.727,1.151 -5.646,1.851 -2.258,0.823 -4.42,1.714 -6.437,2.635 -0.613,1.16 -0.99,2.461 -1.084,3.841 2.365,-1.191 5.216,-2.442 8.548,-3.657 2.733,-0.996 5.447,-1.832 7.961,-2.469 -0.939,-0.952 -2.077,-1.703 -3.342,-2.201 z"
         id="path9331" />
    </g>
  </g>
  <ellipse
     ry="3.3904507"
     rx="3.3791649"
     id="circle9335"
     cy="73.318718"
     cx="57.276768"
     style="fill:#054a6f;fill-opacity:1" />
  <ellipse
     ry="3.3904507"
     rx="3.3791649"
     id="circle9337"
     cy="73.318718"
     cx="69.118202"
     style="fill:#054a6f;fill-opacity:1" />
  <ellipse
     ry="3.3904507"
     rx="3.3791649"
     id="circle9339"
     cy="73.318718"
     cx="80.959442"
     style="fill:#054a6f;fill-opacity:1" />
  <ellipse
     ry="3.3904507"
     rx="3.3791649"
     id="circle9341"
     cy="73.318718"
     cx="92.800873"
     style="fill:#054a6f;fill-opacity:1" />
  <g
     style="fill:#af5f00;fill-opacity:1"
     transform="matrix(0.20222413,0,0,0.20289951,22.980971,23.056653)"
     id="g9343">
    <rect
       x="224.79401"
       y="96.241997"
       style="fill:#af5f00;fill-opacity:1"
       width="32.030998"
       height="6"
       id="rect9345" />
  </g>
  <g
     style="fill:#af5f00;fill-opacity:1"
     transform="matrix(0.20222413,0,0,0.20289951,22.980971,23.056653)"
     id="g9347">
    <rect
       x="263.79401"
       y="96.241997"
       style="fill:#af5f00;fill-opacity:1"
       width="32.030998"
       height="6"
       id="rect9349" />
  </g>
  <g
     style="fill:#af5f00;fill-opacity:1"
     transform="matrix(0.20222413,0,0,0.20289951,22.980971,23.056653)"
     id="g9351">
    <rect
       x="302.79401"
       y="96.241997"
       style="fill:#af5f00;fill-opacity:1"
       width="32.030998"
       height="6"
       id="rect9353" />
  </g>
  <g
     style="fill:#af5f00;fill-opacity:1"
     transform="matrix(0.20222413,0,0,0.20289951,22.980971,23.056653)"
     id="g9355">
    <rect
       x="341.79401"
       y="96.241997"
       style="fill:#af5f00;fill-opacity:1"
       width="32.030998"
       height="6"
       id="rect9357" />
  </g>
  <rect
     x="53.897594"
     y="81.283577"
     style="fill:#af5f00;fill-opacity:1"
     width="9.383604"
     height="8.7139244"
     id="rect9359" />
  <g
     style="fill:#af5f00;fill-opacity:1"
     transform="matrix(0.20222413,0,0,0.20289951,22.980971,23.056653)"
     id="g9361">
    <rect
       x="224.793"
       y="290.42099"
       style="fill:#af5f00;fill-opacity:1"
       width="137.177"
       height="3"
       id="rect9363" />
  </g>
  <g
     style="fill:#af5f00;fill-opacity:1"
     transform="matrix(0.20222413,0,0,0.20289951,22.980971,23.056653)"
     id="g9365">
    <rect
       x="224.793"
       y="302.42099"
       style="fill:#af5f00;fill-opacity:1"
       width="137.177"
       height="3"
       id="rect9367" />
  </g>
  <g
     style="fill:#af5f00;fill-opacity:1"
     transform="matrix(0.20222413,0,0,0.20289951,22.980971,23.056653)"
     id="g9369">
    <rect
       x="224.793"
       y="314.42099"
       style="fill:#af5f00;fill-opacity:1"
       width="137.177"
       height="3"
       id="rect9371" />
  </g>
  <g
     style="fill:#af5f00;fill-opacity:1"
     transform="matrix(0.20222413,0,0,0.20289951,22.980971,23.056653)"
     id="g9373">
    <rect
       x="224.793"
       y="326.42099"
       style="fill:#af5f00;fill-opacity:1"
       width="137.177"
       height="3"
       id="rect9375" />
  </g>
  <polygon
     transform="matrix(0.20222413,0,0,0.20289951,22.980971,23.056653)"
     clip-path="url(#SVGID_2_-6)"
     id="polygon9377"
     points="458.284,200.421 458.094,401.921 391.868,370.24 391.868,147.971 "
     style="opacity:0.13999999" />
</svg>
