<?xml version="1.0" encoding="UTF-8" standalone="no"?>
<svg
   xmlns:dc="http://purl.org/dc/elements/1.1/"
   xmlns:cc="http://creativecommons.org/ns#"
   xmlns:rdf="http://www.w3.org/1999/02/22-rdf-syntax-ns#"
   xmlns:svg="http://www.w3.org/2000/svg"
   xmlns="http://www.w3.org/2000/svg"
   width="150"
   height="150"
   viewBox="0 0 150 150"
   id="svg6346"
   version="1.1">
  <defs
     id="defs6348" />
  <metadata
     id="metadata6351">
    <rdf:RDF>
      <cc:Work
         rdf:about="">
        <dc:format>image/svg+xml</dc:format>
        <dc:type
           rdf:resource="http://purl.org/dc/dcmitype/StillImage" />
        <dc:title></dc:title>
      </cc:Work>
    </rdf:RDF>
  </metadata>
  <path
     d="M 150,74.998598 C 150,116.42173 116.42294,150 75.000002,150 33.57701,150 1.6805621e-6,116.42173 1.6805621e-6,74.998598 1.6805621e-6,33.577352 33.57701,1.4510408e-7 75.000002,1.4510408e-7 116.42294,1.4510408e-7 150,33.577352 150,74.998598"
     style="fill:#007c3a;fill-opacity:1;fill-rule:nonzero;stroke:none"
     id="path9501" />
  <path
     d="m 56.763521,107.81233 c 9.061151,0 16.406228,-7.34607 16.406228,-16.405923 0,-9.059848 -7.345077,-16.405921 -16.406228,-16.405921 -9.060018,0 -16.406282,7.346073 -16.406282,16.405921 0,9.059853 7.346264,16.405923 16.406282,16.405923 z m 31.259069,0.2079 -3.492907,5.49578 -10.064312,-2.67326 -4.291131,3.30042 0.0054,10.41378 -6.209067,1.96473 -5.99134,-8.51794 -5.408902,-0.22878 -6.691627,7.97868 -6.018536,-2.48479 0.886177,-10.37439 -3.996296,-3.65385 -10.255815,1.81074 -3.0138,-5.77232 7.347883,-7.377044 -0.713183,-5.368493 -9.019711,-5.203705 1.401707,-6.359171 10.371881,-0.928356 2.905073,-4.570232 -3.565051,-9.784997 5.160903,-3.969727 8.54368,5.955346 5.160741,-1.634025 3.559656,-9.786885 6.505574,0.27562 2.715459,10.053116 5.006256,2.066449 9.016149,-5.20937 4.805418,4.3926 -4.380703,9.447217 2.505664,4.799933 10.256732,1.804642 0.856877,6.455272 -9.427968,4.42001 -1.165525,5.28783 6.696321,7.97517"
     style="fill:#054a6f;fill-opacity:1;fill-rule:nonzero;stroke:none"
     id="path9503" />
  <path
     d="m 56.763521,107.81233 c 9.061151,0 16.406228,-7.34607 16.406228,-16.405923 0,-9.059848 -7.345077,-16.405921 -16.406228,-16.405921 -9.060018,0 -16.406282,7.346073 -16.406282,16.405921 0,9.059853 7.346264,16.405923 16.406282,16.405923"
     style="fill:#f5f5e6;fill-opacity:1;fill-rule:nonzero;stroke:none"
     id="path9505" />
  <path
     d="m 56.763521,100.77938 c 5.17639,0 9.374278,-4.197597 9.374278,-9.372973 0,-5.176293 -4.197888,-9.373887 -9.374278,-9.373887 -5.17639,0 -9.374063,4.197594 -9.374063,9.373887 0,5.175376 4.197673,9.372973 9.374063,9.372973"
     style="fill:#4f6366;fill-opacity:1;fill-rule:nonzero;stroke:none"
     id="path9507" />
  <path
     d="m 93.233676,57.782435 c 5.508727,2.477505 11.981494,0.01835 14.456944,-5.489414 2.47571,-5.506789 0.0178,-11.979381 -5.49022,-14.454134 -5.506894,-2.477289 -11.979877,-0.01942 -14.455323,5.488497 -2.476418,5.507706 -0.01835,11.980568 5.488599,14.455051 z m 19.947434,9.50301 -4.25628,2.801418 -7.37907,-4.650845 -3.55593,0.478126 -5.889573,6.433256 -4.845025,-1.58012 -0.963069,-8.670107 -2.590057,-2.481012 -8.703022,-0.594137 -1.784333,-4.773439 6.176044,-6.157636 0.326941,-3.572485 -4.963142,-7.174808 2.61941,-4.370531 8.666222,0.989545 2.995778,-1.972939 2.515808,-8.352075 5.050071,-0.678474 4.630747,7.392746 3.41041,1.112301 8.09862,-3.240856 3.67777,3.525649 -2.89309,8.22851 1.25693,3.360859 7.58439,4.311285 -0.46432,5.07361 -8.23687,2.868488 -1.84407,3.077739 1.35871,8.615932"
     style="fill:#af5f00;fill-opacity:1;fill-rule:nonzero;stroke:none"
     id="path9509" />
  <path
     d="m 93.233676,57.782435 c 5.508727,2.477505 11.981494,0.01835 14.456944,-5.489414 2.47571,-5.506789 0.0178,-11.979381 -5.49022,-14.454134 -5.506894,-2.477289 -11.979877,-0.01942 -14.455323,5.488497 -2.476418,5.507706 -0.01835,11.980568 5.488599,14.455051"
     style="fill:#f5f5e6;fill-opacity:1;fill-rule:nonzero;stroke:none"
     id="path9511" />
  <path
     d="m 95.099542,53.632433 c 3.215394,1.444685 6.994668,0.01079 8.440998,-3.204326 1.44401,-3.216035 0.009,-6.993616 -3.20509,-8.438948 -3.216311,-1.444901 -6.993747,-0.01133 -8.439376,3.204056 -1.443741,3.214416 -0.01025,6.994533 3.203468,8.439218"
     style="fill:#4f6366;fill-opacity:1;fill-rule:nonzero;stroke:none"
     id="path9513" />
</svg>
