<?xml version="1.0" encoding="UTF-8" standalone="no"?>
<svg
   xmlns:dc="http://purl.org/dc/elements/1.1/"
   xmlns:cc="http://creativecommons.org/ns#"
   xmlns:rdf="http://www.w3.org/1999/02/22-rdf-syntax-ns#"
   xmlns:svg="http://www.w3.org/2000/svg"
   xmlns="http://www.w3.org/2000/svg"
   version="1.1"
   id="svg6415"
   viewBox="0 0 27 27"
   height="27"
   width="27">
  <defs
     id="defs6417">
    <clipPath
       id="clipPath118"
       clipPathUnits="userSpaceOnUse">
      <path
         id="path120-5"
         d="m 266,1582 60,0 0,-60 -60,0 0,60 z" />
    </clipPath>
    <clipPath
       id="clipPath138"
       clipPathUnits="userSpaceOnUse">
      <path
         id="path140-2"
         d="m 278.042,1573.96 47.488,0 0,-47.42 -47.488,0 0,47.42 z" />
    </clipPath>
  </defs>
  <metadata
     id="metadata6420">
    <rdf:RDF>
      <cc:Work
         rdf:about="">
        <dc:format>image/svg+xml</dc:format>
        <dc:type
           rdf:resource="http://purl.org/dc/dcmitype/StillImage" />
        <dc:title></dc:title>
      </cc:Work>
    </rdf:RDF>
  </metadata>
  <g
     transform="translate(0,-1025.3622)"
     id="layer1">
    <g
       id="g9494"
       transform="matrix(0.41333431,0,0,-0.41333431,-108.86481,1681.2016)"
       style="display:inline">
      <g
         id="g114">
        <g
           id="g116" />
        <g
           id="g122">
          <g
             clip-path="url(#clipPath118)"
             id="g124"
             style="opacity:0.10195899">
            <g
               transform="translate(321.5719,1538.7424)"
               id="g126">
              <path
                 d="m 0,0 -21.727,16.713 c 1.374,2.543 2.155,5.452 2.155,8.545 0,9.941 -8.059,18 -18,18 -2.008,0 -3.933,-0.343 -5.736,-0.95 l 8.393,-8.394 -0.092,-0.091 c 2.075,-1.446 3.435,-3.845 3.435,-6.565 0,-4.419 -3.582,-8 -8,-8 -2.72,0 -5.119,1.36 -6.565,3.435 l -0.092,-0.092 -8.393,8.393 c -0.607,-1.804 -0.95,-3.728 -0.95,-5.736 0,-9.942 8.059,-18 18,-18 3.093,0 6.002,0.781 8.544,2.155 l 16.714,-21.728 c 0.386,-0.653 0.845,-1.258 1.378,-1.791 l 0,0 0,0 c 1.629,-1.629 3.879,-2.636 6.364,-2.636 4.971,0 9,4.029 9,9 C 4.428,-4.443 2.647,-1.567 0,0"
                 style="fill:#000000;fill-opacity:1;fill-rule:evenodd;stroke:none"
                 id="path128-2" />
            </g>
          </g>
        </g>
      </g>
      <g
         id="g130"
         transform="translate(317,1532)">
        <path
           d="M 0,0 C -1.657,0 -3,1.343 -3,3 -3,4.657 -1.657,6 0,6 1.657,6 3,4.657 3,3 3,1.343 1.657,0 0,0 M 4.572,10.742 -17.155,27.456 C -15.781,29.998 -15,32.907 -15,36 c 0,9.941 -8.059,18 -18,18 -2.008,0 -3.933,-0.343 -5.737,-0.95 l 8.394,-8.393 -0.092,-0.092 C -28.36,43.119 -27,40.72 -27,38 c 0,-4.418 -3.582,-8 -8,-8 -2.72,0 -5.119,1.361 -6.565,3.435 l -0.092,-0.092 -8.393,8.394 C -50.657,39.933 -51,38.008 -51,36 c 0,-9.941 8.059,-18 18,-18 3.093,0 6.002,0.781 8.544,2.155 L -7.742,-1.572 c 0.386,-0.653 0.845,-1.258 1.378,-1.792 l 0,0 0,0 C -4.735,-4.993 -2.485,-6 0,-6 4.971,-6 9,-1.971 9,3 9,6.299 7.219,9.176 4.572,10.742"
           style="fill:#ffffff;fill-opacity:1;fill-rule:evenodd;stroke:none"
           id="path132-6" />
      </g>
      <g
         id="g134">
        <g
           id="g136" />
        <g
           id="g142">
          <g
             clip-path="url(#clipPath138)"
             id="g144"
             style="opacity:0.19999701">
            <g
               transform="translate(325.5302,1537.8545)"
               id="g146">
              <path
                 d="M 0,0 C -0.447,1.336 -1.192,2.535 -2.166,3.51 -2.7,4.043 -3.305,4.501 -3.958,4.888 l -21.345,16.419 -0.295,-0.296 C -20.098,10.699 -9.399,3.695 0,0 m -32.53,14.146 -0.19,-0.191 16.448,-21.382 c 0.386,-0.653 0.845,-1.258 1.378,-1.792 0.927,-0.927 2.061,-1.643 3.319,-2.096 -3.709,9.366 -10.693,19.987 -20.955,25.461 m -4.061,21.958 c 0.669,-1.168 1.061,-2.515 1.061,-3.958 0,-4.419 -3.582,-8 -8,-8 -1.443,0 -2.79,0.391 -3.958,1.06 1.375,-2.423 3.973,-4.06 6.958,-4.06 4.418,0 8,3.581 8,8 0,2.984 -1.638,5.583 -4.061,6.958"
                 style="fill:#66c9e9;fill-opacity:1;fill-rule:evenodd;stroke:none"
                 id="path148-8" />
            </g>
          </g>
        </g>
      </g>
    </g>
  </g>
</svg>
