<?xml version="1.0" encoding="UTF-8" standalone="no"?>
<svg
   xmlns:dc="http://purl.org/dc/elements/1.1/"
   xmlns:cc="http://creativecommons.org/ns#"
   xmlns:rdf="http://www.w3.org/1999/02/22-rdf-syntax-ns#"
   xmlns:svg="http://www.w3.org/2000/svg"
   xmlns="http://www.w3.org/2000/svg"
   width="150"
   height="150"
   viewBox="0 0 150 150"
   id="svg7700"
   version="1.1">
  <defs
     id="defs7702">
    <clipPath
       id="clipPath9468-0"
       clipPathUnits="userSpaceOnUse">
      <path
         id="path9470-7"
         d="m 440,340 -240,0 0,150 c 0,11.047 8.953,20 20,20 l 140,0 80,-79.996 0,-90.004 z" />
    </clipPath>
  </defs>
  <metadata
     id="metadata7705">
    <rdf:RDF>
      <cc:Work
         rdf:about="">
        <dc:format>image/svg+xml</dc:format>
        <dc:type
           rdf:resource="http://purl.org/dc/dcmitype/StillImage" />
        <dc:title></dc:title>
      </cc:Work>
    </rdf:RDF>
  </metadata>
  <path
     d="m 150,75 c 0,41.4229 -33.57713,75 -75,75 C 33.57712,150 0,116.4229 0,75 0,33.5771 33.57712,0 75,0 c 41.42287,0 75,33.5771 75,75"
     style="fill:#007c3a;fill-opacity:1;fill-rule:nonzero;stroke:none"
     id="path9536" />
  <path
     d="m 108.50118,76.5849 c -3.41231,-3.9819 -8.39287,-6.2724 -13.63593,-6.2724 l -37.38657,0 c -5.24325,0 -10.22381,2.2905 -13.63575,6.2724 l -4.36368,5.0894 c -2.78944,3.2546 -4.323,7.4021 -4.323,11.6895 l 0,5.0737 82.03125,0 0,-5.0737 c 0,-4.2874 -1.53357,-8.4349 -4.323,-11.6895 l -4.36332,-5.0894"
     style="fill:#054a6f;fill-opacity:1;fill-rule:nonzero;stroke:none"
     id="path9538" />
  <path
     d="m 117.1875,103.125 c 0,3.8837 -3.14757,7.0312 -7.03125,7.0312 l -67.96875,0 c -3.8835,0 -7.03125,-3.1475 -7.03125,-7.0312 l 0,-9.375 c 0,-3.8835 3.14775,-7.0313 7.03125,-7.0313 l 67.96875,0 c 3.88368,0 7.03125,3.1478 7.03125,7.0313 l 0,9.375"
     style="fill:#af5f00;fill-opacity:1;fill-rule:nonzero;stroke:none"
     id="path9540" />
  <path
     d="m 100.78125,98.4375 c 0,-2.5892 2.09831,-4.6875 4.6875,-4.6875 2.58918,0 4.6875,2.0983 4.6875,4.6875 0,2.5892 -2.09832,4.6875 -4.6875,4.6875 -2.58919,0 -4.6875,-2.0983 -4.6875,-4.6875"
     style="fill:#f5f5e6;fill-opacity:1;fill-rule:nonzero;stroke:none"
     id="path9542" />
  <path
     d="m 63.28125,96.0937 c 0,-1.2954 -1.04832,-2.3437 -2.34375,-2.3437 l -2.34375,0 c -1.29544,0 -2.34375,1.0483 -2.34375,2.3437 l 0,4.6875 c 0,1.2955 1.04831,2.3438 2.34375,2.3438 l 2.34375,0 c 1.29543,0 2.34375,-1.0483 2.34375,-2.3438 l 0,-4.6875 z m -11.71875,4.6875 c 0,1.2955 -1.04832,2.3438 -2.34375,2.3438 l -2.34375,0 c -1.29544,0 -2.34375,-1.0483 -2.34375,-2.3438 l 0,-4.6875 c 0,-1.2954 1.04831,-2.3437 2.34375,-2.3437 l 2.34375,0 c 1.29543,0 2.34375,1.0483 2.34375,2.3437 l 0,4.6875"
     style="fill:#ffffff;fill-opacity:1;fill-rule:nonzero;stroke:none"
     id="path9544" />
  <path
     d="m 74.46731,74.1926 c 0.44287,0.5145 1.09406,0.8102 1.77319,0.8083 0.68212,-9e-4 1.3275,-0.2987 1.77337,-0.8148 L 95.10243,54.3337 C 95.7,53.6398 95.84025,52.6611 95.45737,51.828 95.07468,50.9947 94.24425,50.4621 93.32606,50.4621 l -7.65094,0 -5.22112,-26.239 c -0.21713,-1.0968 -1.18144,-1.887 -2.29725,-1.887 l -3.22819,0 c -1.09763,0 -2.05088,0.7637 -2.28788,1.8366 l -5.83181,26.2894 -7.77094,0 c -0.91762,0 -1.75069,0.5357 -2.13056,1.3695 -0.38269,0.8342 -0.24094,1.8148 0.35888,2.5087 l 17.20106,19.8523"
     style="fill:#f5f5e6;fill-opacity:1;fill-rule:nonzero;stroke:none"
     id="path9546" />
</svg>
